<svg xmlns="http://www.w3.org/2000/svg" width="517.34" height="194.21" viewBox="0 0 517.34 194.21"><defs><style>.cls-1{fill:#fff;}</style></defs><title>kvText</title><g id="レイヤー_2" data-name="レイヤー 2"><g id="kv"><path class="cls-1" d="M69.5,101c-1,.24-1.52.36-2.92.64a3.19,3.19,0,0,0-.54-1.07c2.92-.37,5.79-1.2,6.9-2l.83,1c-.23.07-.32.11-1.18.47-.45.17-1,.36-1.95.64v2.87h1.46a9.91,9.91,0,0,0,1.72-.11v1.29a11.21,11.21,0,0,0-1.74-.09H70.68a10.94,10.94,0,0,0,3,3.79,4.5,4.5,0,0,0-.67,1,12.81,12.81,0,0,1-2.47-3.54c.05,1.31.05,1.31.08,3.13v4.07a12.68,12.68,0,0,0,.11,2.29H69.35a15.41,15.41,0,0,0,.13-2.29v-3.86c0-.82,0-2.23.07-3.13A14.86,14.86,0,0,1,66.2,112a4,4,0,0,0-.75-1,15.53,15.53,0,0,0,3.82-6.28h-1.5a11.91,11.91,0,0,0-1.78.09v-1.29a11.08,11.08,0,0,0,1.8.11h1.7Zm8.88-1.78a25.93,25.93,0,0,0-.66,2.77,83.62,83.62,0,0,1-3.24,11c2.23-.24,4.85-.6,6.65-1a36.38,36.38,0,0,0-2.64-5.6l1-.45a41.45,41.45,0,0,1,3.69,8.34l-1.2.51c-.24-.84-.32-1.12-.54-1.78-2.45.49-5.12.88-8.17,1.24a7.5,7.5,0,0,0-1.22.19l-.28-1.35a3,3,0,0,0,.39,0c.26,0,.58,0,1-.06a72.4,72.4,0,0,0,3.05-10.31,19.76,19.76,0,0,0,.64-3.82Z"/><path class="cls-1" d="M86.37,102.21a13,13,0,0,0,2.34.17c.38,0,.58,0,1.12,0a18.34,18.34,0,0,0,.41-3.45l1.48.15c-.11.45-.11.45-.34,1.78-.09.6-.15.86-.24,1.42a15.5,15.5,0,0,0,3.37-.64l.09,1.29-.52.09a27.5,27.5,0,0,1-3.17.45c-.28,1.48-.81,3.6-1.31,5.3a49.62,49.62,0,0,1-2.16,5.72l-1.37-.58a37.73,37.73,0,0,0,3.52-10.36c-.38,0-.6,0-1.29,0s-.82,0-1.55,0h-.07l-.32,0Zm8.38,6.8a6,6,0,0,0-.56.71,2.25,2.25,0,0,0-.47,1.33c0,1.12,1.14,1.72,3.28,1.72a14,14,0,0,0,4.14-.64l.13,1.41-.82.13a18.75,18.75,0,0,1-3.34.32c-3.07,0-4.67-1-4.67-2.81,0-.84.26-1.42,1.26-2.7Zm5.79-3.24a18.68,18.68,0,0,0-2.21-.13,16.33,16.33,0,0,0-4.69.64L93.51,105a21.27,21.27,0,0,1,5-.62c.36,0,.64,0,2,.06Z"/><path class="cls-1" d="M104.21,101.82a17.16,17.16,0,0,0,4,.32,14.57,14.57,0,0,0,.6-3.35l1.5.15a9.69,9.69,0,0,0-.3,1.2c-.26,1.09-.32,1.31-.51,2a31.84,31.84,0,0,0,7.38-.81l.09,1.35c-.32,0-.43,0-.83.09a62.59,62.59,0,0,1-7,.54,25.19,25.19,0,0,1-1.87,4.82l0,0a9.62,9.62,0,0,1,5.45-1.57c3,0,4.85,1.35,4.85,3.45,0,2.55-2.49,4.22-6.28,4.22a14,14,0,0,1-4.63-.73,2.13,2.13,0,0,0,0-.3v-.11c0-.09,0-.43-.09-1a11.43,11.43,0,0,0,4.68.94c3,0,4.91-1.18,4.91-3,0-1.42-1.35-2.29-3.6-2.29a10.21,10.21,0,0,0-4.35,1,4,4,0,0,0-1.57,1.2l-1.35-.54A28.27,28.27,0,0,0,108,103.3c-1.2,0-2-.06-3.11-.13-.24,0-.41,0-.52,0h-.15Z"/><path class="cls-1" d="M124.78,99.51a26.71,26.71,0,0,0-1.44,8.79c0,.66,0,1.76.08,2.62,0,.15,0,.19,0,.52v.36l.07,0a16.61,16.61,0,0,1,1.11-3.3,2.68,2.68,0,0,0,.15-.38l.92.43a16.18,16.18,0,0,0-1.61,5.32,2.1,2.1,0,0,0,0,.38l-1.33.13c0-.17,0-.26-.11-.69a29.85,29.85,0,0,1-.52-5.57,31.77,31.77,0,0,1,1-7.7,9,9,0,0,0,.21-1.18Zm1.89,3.49a13,13,0,0,0,3.37.3c.73,0,1.24,0,2-.06,0-1.76,0-1.76,0-3.19a4.24,4.24,0,0,0-.06-.77h1.4a19.28,19.28,0,0,0-.13,2.94c0,.21,0,.51,0,.92a12.8,12.8,0,0,0,3.24-.69l.05,1.27-1.31.26a17.9,17.9,0,0,1-2,.3c0,1.85.06,2.81.21,5.3a13.6,13.6,0,0,1,3.13,1.84l.47.32-.58,1.31a10.12,10.12,0,0,0-2.66-1.95l-.19-.11-.17-.11a2.75,2.75,0,0,1,0,.49,2.74,2.74,0,0,1-3.35,2.85c-2.17,0-3.54-1-3.54-2.66s1.48-2.66,3.56-2.66a5.3,5.3,0,0,1,2.08.37c-.05-.39-.13-2.16-.19-4.89-.84,0-1.42.06-2.14.06s-1.46,0-2.12-.06a4.9,4.9,0,0,0-.6,0l-.32,0-.19,0h-.08Zm3.6,7c-1.46,0-2.42.62-2.42,1.56s.86,1.52,2.17,1.52a2.58,2.58,0,0,0,1.91-.66,2.19,2.19,0,0,0,.36-1.46c0-.13,0-.56,0-.56A4.84,4.84,0,0,0,130.27,110Z"/><path class="cls-1" d="M159.53,98.63a13,13,0,0,0-.09,1.67,24.48,24.48,0,0,0,.41,4.07,16.4,16.4,0,0,0,2.42,5.25,16.58,16.58,0,0,0,2.77,3,13.86,13.86,0,0,0,2.17,1.46,4.29,4.29,0,0,0-1,1.18,17.19,17.19,0,0,1-5-4.8,16.18,16.18,0,0,1-2.44-6,15.92,15.92,0,0,1-1.29,4.18,12.6,12.6,0,0,1-2.68,3.84,15.93,15.93,0,0,1-3.45,2.74,3.57,3.57,0,0,0-1-1.11,13.22,13.22,0,0,0,3.82-2.83c2.61-2.79,3.88-6.39,3.88-11a13,13,0,0,0-.08-1.65Z"/><path class="cls-1" d="M181.4,108.75c0-.77,0-1.37.06-2.19a10.56,10.56,0,0,1-1.61,1.71,3.21,3.21,0,0,0-.66-1,12.19,12.19,0,0,0,3-3.3,6.54,6.54,0,0,0,.82-1.67l1.12.66a6.78,6.78,0,0,0-.41.64,17.43,17.43,0,0,1-1.16,1.82v7.83a16.18,16.18,0,0,0,.09,2.19h-1.39a16.2,16.2,0,0,0,.11-2.21ZM184,99c-.21.26-.32.37-.53.66a15.87,15.87,0,0,1-3.22,3.35,3,3,0,0,0-.71-.94,10.23,10.23,0,0,0,3.37-3.75Zm1.8,10.27a9.46,9.46,0,0,0-1.57.09v-1.2a8.8,8.8,0,0,0,1.57.09h1.39v-.45a9.3,9.3,0,0,0-.11-1.52h1.33a9,9,0,0,0-.1,1.5v.47h1.44a9.17,9.17,0,0,0,1.57-.09v1.2a9.71,9.71,0,0,0-1.57-.09h-1.44V112c1.22-.24,1.84-.39,3.32-.81l0,1a46.14,46.14,0,0,1-7,1.52,8.52,8.52,0,0,0-1,.19l-.24-1.29a22.1,22.1,0,0,0,3.78-.43v-2.9Zm7.06-4.67a10.48,10.48,0,0,0-1.46.08v1.16a9.32,9.32,0,0,0-1.57-.09h-4.37a9.55,9.55,0,0,0-1.59.09v-1.22a9.42,9.42,0,0,0,1.59.09h1.72v-2.55h-1.12a9,9,0,0,0-1.57.09v-1.2a8.86,8.86,0,0,0,1.57.09h1.12v-1a9.45,9.45,0,0,0-.11-1.52h1.33a9.49,9.49,0,0,0-.1,1.54v1h1.26a9.28,9.28,0,0,0,1.57-.09v1.2a9.31,9.31,0,0,0-1.57-.09h-1.26v2.55h1.52a10.24,10.24,0,0,0,1.5-.08v-1.18a8.56,8.56,0,0,0,1.54.09h2.29a8.43,8.43,0,0,0,1.52-.09v1.24a9,9,0,0,0-1.54-.09h-.34v9c0,.67-.19,1.09-.53,1.24a4.61,4.61,0,0,1-1.63.21c-.49,0-1,0-1.74-.06a4.29,4.29,0,0,0-.26-1.26,15.8,15.8,0,0,0,2.38.21c.51,0,.62-.08.62-.37v-8.94Zm-1.39-4.95a9.43,9.43,0,0,0,1.39.09H195a9,9,0,0,0,1.42-.08v1.18a9.61,9.61,0,0,0-1.42-.07h-2.14a10.35,10.35,0,0,0-1.37.09Z"/><path class="cls-1" d="M199.49,103.69c.67,0,2.62-.24,4.14-.49a23.14,23.14,0,0,0,.56-4V99l1.5.17a11.18,11.18,0,0,0-.36,1.8c-.09.54-.23,1.24-.39,2.14A10.89,10.89,0,0,1,206,103a3.59,3.59,0,0,1,2.7.79c.66.62.92,1.48.92,3,0,2.87-.49,5.36-1.26,6.45a2,2,0,0,1-1.84.88,7,7,0,0,1-2.83-.73,4.26,4.26,0,0,0,0-.67,3.54,3.54,0,0,0-.05-.73,7,7,0,0,0,2.79.86q.7,0,1.07-.9a14.52,14.52,0,0,0,.79-5.21c0-2-.56-2.62-2.31-2.62a10.79,10.79,0,0,0-1.35.09,35.14,35.14,0,0,1-2.83,7.93c-.24.47-.64,1.22-1.22,2.27l-1.27-.75a18.61,18.61,0,0,0,1.95-3.39,31,31,0,0,0,2.06-5.94c-1.61.24-2.51.39-2.68.43a10.78,10.78,0,0,0-1.09.24ZM211.8,102a16.94,16.94,0,0,1,3.92,6.63l-1.2.67a15.55,15.55,0,0,0-3.82-6.73Zm1-2.59a14.62,14.62,0,0,1,2,2.62l-.9.56a12.56,12.56,0,0,0-1.95-2.66Zm1.71-1a14.76,14.76,0,0,1,2,2.64l-.9.56A12.62,12.62,0,0,0,213.64,99Z"/><path class="cls-1" d="M227,104.18a15,15,0,0,0,3.05,6,13.27,13.27,0,0,0,5.08,3.65,5.2,5.2,0,0,0-.83,1.26,14.7,14.7,0,0,1-7.87-9.26,11.69,11.69,0,0,1-3.65,6.73,14.56,14.56,0,0,1-4,2.55,3.89,3.89,0,0,0-.81-1.14,11.8,11.8,0,0,0,4.93-3.28,11.51,11.51,0,0,0,2.61-6.54h-5.1a11.42,11.42,0,0,0-2.06.13v-1.46a11.47,11.47,0,0,0,2.1.13h5.17c.06-.9.08-1.48.08-2.21a14.08,14.08,0,0,0-.13-2H227a11.1,11.1,0,0,0-.13,1.95c0,1,0,1.5-.09,2.31h5.68a11.63,11.63,0,0,0,2.08-.13v1.46a12.26,12.26,0,0,0-2.06-.13Z"/><path class="cls-1" d="M238.72,104.95c-.53.11-.9.23-1.46.39l-.15-1.27h.11a8.27,8.27,0,0,0,1.35-.19l1.09-.24v-3.17a10.07,10.07,0,0,0-.09-1.71h1.37a9.35,9.35,0,0,0-.09,1.69v2.94l3.05-.66a12.08,12.08,0,0,0,1.41-.39l.11,1.26a13.59,13.59,0,0,0-1.42.23l-3.15.67v5.19c0,.43.13.54.6.54a10,10,0,0,0,1.27-.11c.6-.09.82-.39,1-1.26a16,16,0,0,0,.17-2.12,4.21,4.21,0,0,0,1.14.51c-.17,2.12-.39,3-.9,3.45s-1.29.64-2.77.64c-1.33,0-1.67-.28-1.67-1.35v-5.23Zm7.06-4a12.41,12.41,0,0,0-1.76.09V99.8a13,13,0,0,0,2,.11h6.28a15.6,15.6,0,0,0,1.74-.08c-.06.86-.06.86-.11,2.34-.17,5.34-.54,9-1.16,11-.38,1.26-.86,1.65-2.1,1.65-.58,0-1.56-.06-2.34-.13a5,5,0,0,0-.26-1.33,12.91,12.91,0,0,0,2.42.28c.56,0,.79-.11,1-.45a18.74,18.74,0,0,0,1-5.23c.19-2,.28-3.8.32-7h-3.86a29.49,29.49,0,0,1-.43,4.91,13.88,13.88,0,0,1-2.62,6.3,12.41,12.41,0,0,1-3.41,3,3.53,3.53,0,0,0-1-1,10.48,10.48,0,0,0,4.91-5.25,16.87,16.87,0,0,0,1.24-5.58q0-.39.11-2.42Z"/><path class="cls-1" d="M260.55,99.59a26.61,26.61,0,0,0-.79,3,27.69,27.69,0,0,0-.56,5.87c0,1.46,0,2.57.11,3.56a17.33,17.33,0,0,1,1.22-3.65l.9.43a16.32,16.32,0,0,0-1.52,5.15v.28l-1.35.11c0-.3-.06-.39-.11-.75a26.79,26.79,0,0,1-.49-5.3,31,31,0,0,1,.84-7.42,10.11,10.11,0,0,0,.26-1.5Zm4.78,7.53a4.35,4.35,0,0,0-1.41,2.75c0,1.39,1.18,2.06,3.6,2.06a12.32,12.32,0,0,0,4.31-.66l.19,1.44c-.24,0-.28,0-.66.09a19.29,19.29,0,0,1-3.84.37c-2.14,0-3.48-.45-4.29-1.42a2.66,2.66,0,0,1-.56-1.72,5.18,5.18,0,0,1,1.63-3.49Zm-2.38-5.55a12.74,12.74,0,0,0,3.19.28,20.13,20.13,0,0,0,5-.51l.09,1.33-1.29.17a31.78,31.78,0,0,1-4,.24,25,25,0,0,1-3-.19Z"/><path class="cls-1" d="M278.6,99.36a28.5,28.5,0,0,0-.24,4c-.08,2.25-.13,4.8-.13,5.64,0,.23,0,.69,0,1.12a3,3,0,0,0,.88,2.25,3.54,3.54,0,0,0,2.34.73,5.38,5.38,0,0,0,5-3.26,11.13,11.13,0,0,0,.92-2.94,5.32,5.32,0,0,0,1.35.9,11.41,11.41,0,0,1-2.08,4.25,6.56,6.56,0,0,1-5.28,2.34,4.44,4.44,0,0,1-3.52-1.31c-.77-.88-1-1.87-1-3.84,0-1.26,0-1.72.17-7.63,0-.56,0-.92,0-1.22a5.71,5.71,0,0,0-.07-1Z"/><path class="cls-1" d="M290.75,101.61h.67c.26,0,.49,0,1.07-.06,2.23-.17,8.23-.51,10.64-.62a12.63,12.63,0,0,0,2.23-.21l.11,1.41a8.71,8.71,0,0,0-2.1.24,9.51,9.51,0,0,0-3.6,1.89,5.73,5.73,0,0,0-2.31,4.33,3.67,3.67,0,0,0,2.62,3.47,9.58,9.58,0,0,0,2.81.6h.19l-.24,1.52-.58-.11a9.46,9.46,0,0,1-4-1.44,4.56,4.56,0,0,1-2.08-3.82,7.1,7.1,0,0,1,3.5-5.75,12.3,12.3,0,0,1,1.78-1,36.23,36.23,0,0,1-4.12.41,55,55,0,0,0-6.47.62Z"/><path class="cls-1" d="M311.15,100.71a13.42,13.42,0,0,0-.13,2.23,32,32,0,0,0,.49,5.83c.41,1.91,1.18,3.2,1.89,3.2.34,0,.66-.32.94-.94a13.42,13.42,0,0,0,1-3.2,6,6,0,0,0,1.1,1.07c-.92,3.28-1.78,4.53-3.11,4.53-1.05,0-2-1-2.66-2.85s-.92-4.18-1-8.79a10.77,10.77,0,0,0-.06-1.11Zm9.05,1a16.24,16.24,0,0,1,2.68,4.27,17.91,17.91,0,0,1,1.41,5l-1.33.54a16.54,16.54,0,0,0-3.9-9.24Z"/><path class="cls-1" d="M330,100a8.65,8.65,0,0,0,1.76.11c1.55,0,4-.11,5.73-.24a1.92,1.92,0,0,0,.9-.21l.79,1a3.46,3.46,0,0,0-1,.79,48,48,0,0,1-6.17,5.32l0,.06a9.5,9.5,0,0,1,4.59-1.16c3.13,0,5.13,1.54,5.13,3.94,0,2.92-2.72,4.85-6.88,4.85-2.64,0-4.16-1-4.16-2.7,0-1.26,1.16-2.19,2.72-2.19a3.77,3.77,0,0,1,3.09,1.54,5.36,5.36,0,0,1,.86,1.8c2-.54,3-1.69,3-3.28,0-1.8-1.5-2.87-4-2.87a12,12,0,0,0-7.89,3.21l-.84-1.2a20.93,20.93,0,0,0,2.62-1.91c2-1.59,5-4.2,6.26-5.47l.26-.26.08-.07L337,101l0,0-.17,0c-.6.11-2.85.24-5.7.34a9.24,9.24,0,0,0-1,.09Zm3.52,10.66c-.94,0-1.52.45-1.52,1.16a1.28,1.28,0,0,0,.75,1.14,4.78,4.78,0,0,0,2.1.43,6.79,6.79,0,0,0,1.37-.13C335.79,111.58,334.86,110.68,333.51,110.68Z"/><path class="cls-1" d="M346,106.41a12.51,12.51,0,0,0,3.35.75c.1-.92.28-2.38.43-3.37a24.83,24.83,0,0,1-2.79-.51l-.58-.13.17-1.24a12,12,0,0,0,3.37.73,29.29,29.29,0,0,0,.45-3.52V99l1.5.17a9.85,9.85,0,0,0-.3,1.26c0,.17,0,.17-.19,1.2-.06.41-.09.6-.19,1.12l1.09,0a15.2,15.2,0,0,0,3.43-.32l-.05,1.29-1.31.11c-.58.06-1.14.07-1.69.07-.3,0-.62,0-1.65,0-.3,2.16-.32,2.34-.43,3.39l1.24,0a16.44,16.44,0,0,0,3.45-.3l0,1.26-.51,0a21.57,21.57,0,0,1-2.64.15c-.47,0-.77,0-1.61,0a3.15,3.15,0,0,1,0,.37c0,.45-.08,1.07-.08,1.39a2.77,2.77,0,0,0,.86,2.25,3.94,3.94,0,0,0,2.64.81c2.51,0,4.14-1.29,4.14-3.28a4.27,4.27,0,0,0-1.78-3.26,3.71,3.71,0,0,0,1.37-.38c1.33,1.44,1.76,2.36,1.76,3.73,0,2.64-2.21,4.42-5.49,4.42-2,0-3.47-.67-4.2-1.87a5.07,5.07,0,0,1-.58-2.59,10.13,10.13,0,0,1,.07-1.24c0-.28,0-.28,0-.45a19.79,19.79,0,0,1-2.83-.47,1.93,1.93,0,0,0-.58-.11Z"/><path class="cls-1" d="M370.11,109c-1.09,2.47-2.19,3.6-3.54,3.6-1.78,0-3.11-1.95-3.11-4.57a7.61,7.61,0,0,1,8-7.66,7.25,7.25,0,0,1,5.15,1.86,6.27,6.27,0,0,1,1.82,4.57,6.82,6.82,0,0,1-4.29,6.47,14.47,14.47,0,0,1-2.85.86,3,3,0,0,0-.66-1.26,11.26,11.26,0,0,0,3.13-.88,5.66,5.66,0,0,0,3.32-5.25,4.94,4.94,0,0,0-3-4.7,5.38,5.38,0,0,0-2.17-.47A28.17,28.17,0,0,1,370.11,109Zm-2.31-6.54a6.48,6.48,0,0,0-3.05,5.58c0,1.8.79,3.19,1.8,3.19.79,0,1.54-.88,2.34-2.72a25.78,25.78,0,0,0,1.7-6.93A5.92,5.92,0,0,0,367.81,102.46Z"/><path class="cls-1" d="M386.94,101.37a7.91,7.91,0,0,0,.9-2.57l1.5.26a4,4,0,0,0-.49,1c-.24.6-.49,1.11-.58,1.27l.39,0a26.39,26.39,0,0,0,5.9-.71l.11,1.27a5.83,5.83,0,0,0-.75.09,60.38,60.38,0,0,1-6.18.49,13.82,13.82,0,0,1-1.69,2.66c-.19.22-.56.66-.64.71l-.24.19a0,0,0,0,1,0,0v0l0,.06c.68-.53.68-.53.86-.66a5,5,0,0,1,2.83-.92,2.27,2.27,0,0,1,2.47,2.08c1.37-.54,2.44-.94,3.26-1.24a4.13,4.13,0,0,0,1.27-.54l.6,1.31a31,31,0,0,0-5,1.65c0,.49,0,.67,0,1.14,0,.24,0,.66,0,1s0,.67,0,.84a4.15,4.15,0,0,0,0,.67l-1.27,0c.05-.41.11-1.56.11-2.7a5.08,5.08,0,0,0,0-.56c-2.55,1.2-3.52,2.08-3.52,3.2s1.16,1.78,3.8,1.78a15.71,15.71,0,0,0,5-.73l.17,1.44a7,7,0,0,0-.75.09,29.09,29.09,0,0,1-4.55.37c-3.35,0-5-1-5-2.89a3.87,3.87,0,0,1,1.91-3,14.49,14.49,0,0,1,2.79-1.5c-.15-1-.6-1.48-1.48-1.48a7,7,0,0,0-4.18,2,6.21,6.21,0,0,0-1.44,1.56l-1-1a18.66,18.66,0,0,0,4.2-5.36l.17-.28a2.15,2.15,0,0,1-.36,0l-2.75-.06H383l-.41,0,0-1.29a26.1,26.1,0,0,0,4,.21Z"/><path class="cls-1" d="M400.12,103.38a16.6,16.6,0,0,1,3.45,2.16l-.66,1.09a15,15,0,0,0-3.45-2.32Zm3.63,6.05a35,35,0,0,1-3.11,5.58l-1.07-1a5.07,5.07,0,0,0,.58-.64,18.87,18.87,0,0,0,2.64-4.72Zm-2.81-10.77a22.12,22.12,0,0,1,3.22,2.49l-.73,1a19.63,19.63,0,0,0-3.26-2.62ZM409.6,101a37.5,37.5,0,0,1-4.29.47,3.64,3.64,0,0,0-.49-1.14,34,34,0,0,0,7.93-1.07,8.69,8.69,0,0,0,2.16-.75l.86,1.12-.62.17c-1.09.32-2.55.66-4.35,1v3.24h3.65a12.87,12.87,0,0,0,1.91-.11v1.33a13.8,13.8,0,0,0-1.91-.11H410.8v3.19h3a9.08,9.08,0,0,0,1.44-.08,12.22,12.22,0,0,0-.07,1.71v3.56a14.41,14.41,0,0,0,.09,1.82H414v-1.07h-7.25v1.07h-1.27a12.46,12.46,0,0,0,.09-1.84v-3.6a14.49,14.49,0,0,0-.07-1.65,9,9,0,0,0,1.37.08h2.75v-3.19H406a13.87,13.87,0,0,0-1.89.11v-1.33a12.56,12.56,0,0,0,1.89.11h3.56Zm-2.87,12.16H414v-3.77h-7.25Z"/><path class="cls-1" d="M419.44,103.62c.67,0,2.62-.24,4.14-.49a22.91,22.91,0,0,0,.56-4v-.24l1.5.17a11.72,11.72,0,0,0-.36,1.8c-.09.54-.23,1.24-.39,2.14A10.92,10.92,0,0,1,426,103a3.58,3.58,0,0,1,2.7.79c.66.62.92,1.48.92,3,0,2.87-.49,5.36-1.26,6.45a2,2,0,0,1-1.84.88,7.05,7.05,0,0,1-2.83-.73,4,4,0,0,0,0-.66,3.6,3.6,0,0,0-.06-.75,7,7,0,0,0,2.79.86q.7,0,1.07-.9a14.52,14.52,0,0,0,.79-5.21c0-2-.56-2.62-2.31-2.62a10.79,10.79,0,0,0-1.35.09,35.29,35.29,0,0,1-2.83,7.95c-.24.45-.64,1.2-1.22,2.25l-1.27-.75a18,18,0,0,0,1.95-3.39,31,31,0,0,0,2.06-5.94c-1.61.24-2.51.39-2.68.43a10.57,10.57,0,0,0-1.09.24Zm12.31-1.72a16.94,16.94,0,0,1,3.92,6.63l-1.2.69a15.33,15.33,0,0,0-3.82-6.73Z"/><path class="cls-1" d="M441.72,99.36a28.5,28.5,0,0,0-.24,4c-.08,2.25-.13,4.8-.13,5.64,0,.23,0,.69,0,1.12a3,3,0,0,0,.88,2.25,3.54,3.54,0,0,0,2.34.73,5.38,5.38,0,0,0,5-3.26,11.13,11.13,0,0,0,.92-2.94,5.32,5.32,0,0,0,1.35.9,11.41,11.41,0,0,1-2.08,4.25,6.56,6.56,0,0,1-5.28,2.34A4.44,4.44,0,0,1,441,113c-.77-.88-1-1.87-1-3.84,0-1.26,0-1.72.17-7.63,0-.56,0-.92,0-1.22a5.71,5.71,0,0,0-.07-1Z"/><path class="cls-1" d="M172.13,111a19.11,19.11,0,0,1,3.77,4l-1,1a18.71,18.71,0,0,0-3.69-4.09Z"/><path class="cls-1" d="M142.13,111a19.11,19.11,0,0,1,3.77,4l-1,1a18.71,18.71,0,0,0-3.69-4.09Z"/><path class="cls-1" d="M13.47,140.56a11.46,11.46,0,0,0,2.1-.13v1.35a15.33,15.33,0,0,0-2.08-.11H9V145h5.6a11.9,11.9,0,0,0,2.1-.13v1.35a15.84,15.84,0,0,0-2.1-.11H9.52a18.4,18.4,0,0,0,7.61,6.41,4.94,4.94,0,0,0-.82,1.16A19.91,19.91,0,0,1,12,150.6a15.88,15.88,0,0,1-3-3.8c.06,1.09.08,1.56.08,2v4.09a10.51,10.51,0,0,0,.13,1.85H7.68a10.39,10.39,0,0,0,.13-1.85v-4c0-.58,0-.9.07-2a16,16,0,0,1-2.72,3.47,20.37,20.37,0,0,1-4.33,3.3A4.84,4.84,0,0,0,0,152.53a19.6,19.6,0,0,0,7.31-6.39H2.6a18,18,0,0,0-2.06.11v-1.35A13.51,13.51,0,0,0,2.6,145H7.81v-3.37H3.67a17.75,17.75,0,0,0-2.06.11v-1.35a13.33,13.33,0,0,0,2.06.13H7.81v-1.33a9.34,9.34,0,0,0-.11-1.54H9.13A6.65,6.65,0,0,0,9,139.23v1.33Z"/><path class="cls-1" d="M30.27,145.88a18.38,18.38,0,0,0,2.23-4.29l1.16.47a27.71,27.71,0,0,1-2.08,3.82h2.77a10.13,10.13,0,0,0,2.06-.13v1.33a15.85,15.85,0,0,0-2.1-.11H29.11a19.12,19.12,0,0,0,2.47,2.6,17.35,17.35,0,0,0,5.06,3.17,5.35,5.35,0,0,0-.81,1.16,20.5,20.5,0,0,1-4.72-3.19,17,17,0,0,1-2.64-3.15c.06,1,.08,1.54.08,2v3.35a10.05,10.05,0,0,0,.13,1.82H27.26a10.2,10.2,0,0,0,.13-1.82v-3.35c0-.56,0-.88.08-2a15.19,15.19,0,0,1-3.52,4,21.6,21.6,0,0,1-3.35,2.29,4.73,4.73,0,0,0-.84-1.09A19.5,19.5,0,0,0,25,149.16,16.74,16.74,0,0,0,26.86,147H22a19,19,0,0,0-2.06.11v-1.33a12.92,12.92,0,0,0,2,.13h5.43V141H22.91a17,17,0,0,0-2,.11v-1.31a13.43,13.43,0,0,0,2,.13h4.44v-.62a9.6,9.6,0,0,0-.11-1.56h1.39a6.92,6.92,0,0,0-.11,1.56v.62h4.78a10.6,10.6,0,0,0,2.08-.13v1.31a14.69,14.69,0,0,0-2-.11H28.55v4.91Zm-6.82-4.31A23.05,23.05,0,0,1,25.31,145l-1.05.54a17.8,17.8,0,0,0-1.82-3.52Z"/><path class="cls-1" d="M42.58,139a26.61,26.61,0,0,0-.79,3,27.69,27.69,0,0,0-.56,5.87c0,1.46,0,2.57.11,3.56a17.34,17.34,0,0,1,1.22-3.65l.9.43a16.32,16.32,0,0,0-1.52,5.15v.28l-1.35.11c0-.3-.06-.39-.11-.75a26.77,26.77,0,0,1-.49-5.3,31,31,0,0,1,.84-7.42,10.14,10.14,0,0,0,.26-1.5Zm4.78,7.53A4.35,4.35,0,0,0,46,149.25c0,1.39,1.18,2.06,3.6,2.06a12.32,12.32,0,0,0,4.31-.66L54,152.1c-.24,0-.28,0-.66.09a19.29,19.29,0,0,1-3.84.37c-2.14,0-3.48-.45-4.29-1.42a2.66,2.66,0,0,1-.56-1.72,5.18,5.18,0,0,1,1.63-3.49ZM45,141a12.74,12.74,0,0,0,3.19.28,20.13,20.13,0,0,0,5-.51l.09,1.33-1.29.17a31.78,31.78,0,0,1-4,.24,25,25,0,0,1-3-.19Z"/><path class="cls-1" d="M57.24,142.56a25.13,25.13,0,0,0,3.9-.79,25.08,25.08,0,0,1,5.43-.69c3.43,0,5.6,1.82,5.6,4.68,0,2.34-1.39,4.31-3.9,5.53a16.17,16.17,0,0,1-6.2,1.42,3.32,3.32,0,0,0-.58-1.39,16.75,16.75,0,0,0,5.21-.86c2.57-.94,4-2.62,4-4.72s-1.56-3.37-4.1-3.37A29.75,29.75,0,0,0,59,143.71a8.15,8.15,0,0,0-1.35.45Z"/><path class="cls-1" d="M81.32,138.36a5.83,5.83,0,0,0-.3,1.2c-.13.64-.24,1.09-.51,2a15.62,15.62,0,0,0,3.35-.62l.05,1.29-.66.11a22.65,22.65,0,0,1-3.07.39,34.9,34.9,0,0,1-2.08,5.47c-.45.9-.62,1.22-1.33,2.46-.17.26-.28.49-.38.64l-1.27-.75a16.64,16.64,0,0,0,1.8-2.92,27.9,27.9,0,0,0,1.95-4.83l-1.39,0-1.24,0-.41,0H75.6l0-1.29a11.85,11.85,0,0,0,2.23.15l1.35,0a19.18,19.18,0,0,0,.64-3.52Zm8.9,14.54a10.72,10.72,0,0,0-3.28-2.55,3.79,3.79,0,0,1,0,.6c0,1.93-1.27,3-3.56,3s-3.65-1-3.65-2.72a2.66,2.66,0,0,1,1.74-2.38,5.46,5.46,0,0,1,2.21-.41,6.2,6.2,0,0,1,1.89.28c-.1-1.22-.13-2.1-.13-2.57a7.57,7.57,0,0,1,.19-1.82l1.27.13a5.76,5.76,0,0,0-.24,1.74,22.18,22.18,0,0,0,.21,2.85,13.49,13.49,0,0,1,3.67,2.27,1.81,1.81,0,0,0,.34.3Zm-6.6-3.35c-1.59,0-2.61.66-2.61,1.69s.9,1.54,2.38,1.54,2.34-.64,2.34-2c0-.22,0-.81,0-.81A5.56,5.56,0,0,0,83.63,149.55Zm6.58-5.1a20.33,20.33,0,0,0-5-2.55l.69-1.05a25.87,25.87,0,0,1,4.95,2.47Z"/><path class="cls-1" d="M94.09,143.07c.67,0,2.62-.24,4.14-.49a23.14,23.14,0,0,0,.56-4v-.24l1.5.17a11.19,11.19,0,0,0-.36,1.8c-.09.54-.23,1.24-.39,2.14a10.9,10.9,0,0,1,1.11-.06,3.59,3.59,0,0,1,2.7.79c.66.62.92,1.48.92,3,0,2.87-.49,5.36-1.26,6.45a2,2,0,0,1-1.84.88,7,7,0,0,1-2.83-.73,4.28,4.28,0,0,0,0-.67,3.54,3.54,0,0,0-.05-.73,7,7,0,0,0,2.79.86q.7,0,1.07-.9a14.52,14.52,0,0,0,.79-5.21c0-2-.56-2.62-2.31-2.62a10.79,10.79,0,0,0-1.35.09,35.13,35.13,0,0,1-2.83,7.93c-.24.47-.64,1.22-1.22,2.27L94,153.08a18.6,18.6,0,0,0,1.95-3.39A31,31,0,0,0,98,143.74c-1.61.24-2.51.39-2.68.43a10.76,10.76,0,0,0-1.09.24Zm12.31-1.72a16.93,16.93,0,0,1,3.92,6.63l-1.2.67a15.55,15.55,0,0,0-3.82-6.73Zm1-2.59a14.62,14.62,0,0,1,2,2.62l-.9.56a12.56,12.56,0,0,0-2-2.66Zm1.71-1a14.77,14.77,0,0,1,2,2.64l-.9.56a12.62,12.62,0,0,0-1.95-2.66Z"/><path class="cls-1" d="M116,139.4a8.65,8.65,0,0,0,1.76.11c1.55,0,4-.11,5.73-.24a1.92,1.92,0,0,0,.9-.21l.79,1a3.46,3.46,0,0,0-1,.79A48,48,0,0,1,118,146.2l0,.06a9.5,9.5,0,0,1,4.59-1.16c3.13,0,5.13,1.54,5.13,3.94,0,2.92-2.72,4.85-6.88,4.85-2.64,0-4.16-1-4.16-2.7,0-1.26,1.16-2.19,2.72-2.19a3.77,3.77,0,0,1,3.09,1.54,5.36,5.36,0,0,1,.86,1.8c2-.54,3-1.69,3-3.28,0-1.8-1.5-2.87-4-2.87a12,12,0,0,0-7.89,3.21l-.84-1.2a20.93,20.93,0,0,0,2.62-1.91c2-1.59,5-4.2,6.26-5.47l.26-.26.07-.07.08-.08,0,0-.17,0c-.6.11-2.85.24-5.7.34a9.23,9.23,0,0,0-1,.09Zm3.52,10.66c-.94,0-1.52.45-1.52,1.16a1.28,1.28,0,0,0,.75,1.14,4.78,4.78,0,0,0,2.1.43,6.79,6.79,0,0,0,1.37-.13C121.79,151,120.86,150.06,119.51,150.06Z"/><path class="cls-1" d="M133,148.13c0-.77,0-1.37.06-2.19a10.56,10.56,0,0,1-1.61,1.71,3.21,3.21,0,0,0-.66-1,12.2,12.2,0,0,0,3-3.3,6.53,6.53,0,0,0,.82-1.67l1.12.66a6.82,6.82,0,0,0-.41.64,17.42,17.42,0,0,1-1.16,1.82v7.83a16.15,16.15,0,0,0,.09,2.19h-1.39a16.17,16.17,0,0,0,.11-2.21Zm2.61-9.76c-.21.26-.32.37-.53.66a15.87,15.87,0,0,1-3.22,3.35,3,3,0,0,0-.71-.94,10.23,10.23,0,0,0,3.37-3.75Zm1.8,10.27a9.46,9.46,0,0,0-1.57.09v-1.2a8.79,8.79,0,0,0,1.57.09h1.39v-.45a9.27,9.27,0,0,0-.11-1.52H140a9,9,0,0,0-.1,1.5v.47h1.44a9.17,9.17,0,0,0,1.57-.09v1.2a9.71,9.71,0,0,0-1.57-.09h-1.44v2.7c1.22-.24,1.84-.39,3.32-.81l0,1a46.15,46.15,0,0,1-7,1.52,8.52,8.52,0,0,0-1,.19L135,152a22.1,22.1,0,0,0,3.78-.43v-2.9Zm7.06-4.67A10.48,10.48,0,0,0,143,144v1.16a9.32,9.32,0,0,0-1.57-.09H137a9.55,9.55,0,0,0-1.59.09V144a9.42,9.42,0,0,0,1.59.09h1.72v-2.55h-1.12a9,9,0,0,0-1.57.09v-1.2a8.86,8.86,0,0,0,1.57.09h1.12v-1a9.42,9.42,0,0,0-.11-1.52H140a9.47,9.47,0,0,0-.1,1.54v1h1.26a9.29,9.29,0,0,0,1.57-.09v1.2a9.31,9.31,0,0,0-1.57-.09h-1.26v2.55h1.52a10.24,10.24,0,0,0,1.5-.08v-1.18a8.56,8.56,0,0,0,1.54.09h2.29a8.43,8.43,0,0,0,1.52-.09v1.24a9,9,0,0,0-1.54-.09h-.34v9c0,.67-.19,1.09-.53,1.24a4.61,4.61,0,0,1-1.63.21c-.49,0-1,0-1.74-.06a4.28,4.28,0,0,0-.26-1.26,15.8,15.8,0,0,0,2.38.21c.51,0,.62-.08.62-.37V144ZM143,139a9.43,9.43,0,0,0,1.39.09h2.12A9,9,0,0,0,148,139v1.18a9.61,9.61,0,0,0-1.42-.07H144.4a10.35,10.35,0,0,0-1.37.09Z"/><path class="cls-1" d="M151.06,142.69a25.17,25.17,0,0,0,3.9-.79,25,25,0,0,1,5.43-.69c3.43,0,5.6,1.82,5.6,4.68,0,2.34-1.39,4.31-3.9,5.53a16.15,16.15,0,0,1-6.2,1.44,3.37,3.37,0,0,0-.58-1.41,16.26,16.26,0,0,0,5.21-.86c2.57-.94,4-2.62,4-4.72s-1.56-3.37-4.11-3.37a29.73,29.73,0,0,0-7.64,1.33,8.26,8.26,0,0,0-1.35.45Zm13.25-4.22a14,14,0,0,1,2,2.62l-1,.53a11.17,11.17,0,0,0-1.95-2.64Zm1.78-1a13.56,13.56,0,0,1,2,2.62l-1,.51a10.65,10.65,0,0,0-2-2.62Z"/><path class="cls-1" d="M179.88,139.23c-.21.17-.36.3-2.3,2.17a55,55,0,0,1-4.31,3.54c-.69.52-.83.67-.83.94s.15.47,1.67,1.65a55.15,55.15,0,0,1,6,5.12,4.79,4.79,0,0,0,.53.47l-1.18,1.16a17.74,17.74,0,0,0-2.42-2.57c-1.26-1.16-2-1.78-4.74-3.92-1.05-.82-1.35-1.24-1.35-1.87a1.82,1.82,0,0,1,.54-1.26,14.65,14.65,0,0,1,1.59-1.27,29.74,29.74,0,0,0,5.49-5.14Z"/><path class="cls-1" d="M188.68,138.33a10.58,10.58,0,0,0-.43,1.93c-.3,1.89-.56,3.94-.62,4.89l.08,0,.13-.54a8.4,8.4,0,0,1,1.14-2.79,4.47,4.47,0,0,1,3.75-2.42,3.53,3.53,0,0,1,3,1.67,8.83,8.83,0,0,1-3.2,11.92,14.23,14.23,0,0,1-3.34,1.11,3.88,3.88,0,0,0-.75-1.27,9.9,9.9,0,0,0,3.8-1.18c2.19-1.26,3.22-3.22,3.22-6.22s-1-4.76-2.85-4.76c-1.42,0-2.62,1.07-3.69,3.26a9.76,9.76,0,0,0-1,4.18c0,.08,0,.17,0,.45l-1.35.06v-.21l0-.34,0-1.95v-.43a47.34,47.34,0,0,1,.64-6.91,3.85,3.85,0,0,0,.05-.6Z"/><path class="cls-1" d="M206.06,138.36a32.6,32.6,0,0,0,1.41,6.2c1.11-.45,1.63-.66,4.53-1.67a9.88,9.88,0,0,0,1.2-.49l.56,1.42a43.07,43.07,0,0,0-5.64,1.82c-3.2,1.27-4.59,2.51-4.59,4.07,0,1.71,1.44,2.36,5.12,2.36a18.61,18.61,0,0,0,5.36-.64l.15,1.56a9.69,9.69,0,0,0-1.39.11,37.51,37.51,0,0,1-4.14.24,12.73,12.73,0,0,1-4.16-.51,3.11,3.11,0,0,1-2.32-3.07,4.05,4.05,0,0,1,1.67-3.19,11.62,11.62,0,0,1,2.46-1.52,38.06,38.06,0,0,1-1.37-5.25,6.32,6.32,0,0,0-.32-1.18Z"/><path class="cls-1" d="M223,138.36a32.62,32.62,0,0,0,1.41,6.2c1.11-.45,1.63-.66,4.53-1.67a9.88,9.88,0,0,0,1.2-.49l.56,1.42a43.15,43.15,0,0,0-5.64,1.82c-3.2,1.27-4.59,2.51-4.59,4.07,0,1.71,1.44,2.36,5.12,2.36a18.61,18.61,0,0,0,5.36-.64l.15,1.56a9.69,9.69,0,0,0-1.39.11,37.51,37.51,0,0,1-4.14.24,12.74,12.74,0,0,1-4.16-.51,3.11,3.11,0,0,1-2.32-3.07,4.05,4.05,0,0,1,1.67-3.19,11.62,11.62,0,0,1,2.46-1.52,38,38,0,0,1-1.37-5.25,6.33,6.33,0,0,0-.32-1.18Z"/><path class="cls-1" d="M235.23,145.79a12.51,12.51,0,0,0,3.35.75c.1-.92.28-2.38.43-3.37a24.82,24.82,0,0,1-2.79-.51l-.58-.13.17-1.24a12,12,0,0,0,3.37.73,29.31,29.31,0,0,0,.45-3.52v-.15l1.5.17a9.84,9.84,0,0,0-.3,1.26c0,.17,0,.17-.19,1.2-.06.41-.09.6-.19,1.12l1.09,0a15.2,15.2,0,0,0,3.43-.32l-.05,1.29-1.31.11c-.58.06-1.14.07-1.69.07-.3,0-.62,0-1.65,0-.3,2.16-.32,2.34-.43,3.39l1.24,0a16.44,16.44,0,0,0,3.45-.3l0,1.26-.51,0a21.58,21.58,0,0,1-2.64.15c-.47,0-.77,0-1.61,0a3.18,3.18,0,0,1,0,.37c0,.45-.08,1.07-.08,1.39a2.77,2.77,0,0,0,.86,2.25,3.94,3.94,0,0,0,2.64.81c2.51,0,4.14-1.29,4.14-3.28A4.27,4.27,0,0,0,245.5,146a3.71,3.71,0,0,0,1.37-.38c1.33,1.44,1.76,2.36,1.76,3.73,0,2.64-2.21,4.42-5.49,4.42-2,0-3.47-.67-4.2-1.87a5.07,5.07,0,0,1-.58-2.59,10.13,10.13,0,0,1,.07-1.24c0-.28,0-.28,0-.45a19.79,19.79,0,0,1-2.83-.47,1.93,1.93,0,0,0-.58-.11Z"/><path class="cls-1" d="M255.66,139a26.6,26.6,0,0,0-.79,3,27.69,27.69,0,0,0-.56,5.87c0,1.46,0,2.57.11,3.56a17.33,17.33,0,0,1,1.22-3.65l.9.43a16.32,16.32,0,0,0-1.52,5.15v.28l-1.35.11c0-.3-.06-.39-.11-.75a26.79,26.79,0,0,1-.49-5.3,31,31,0,0,1,.84-7.42,10.12,10.12,0,0,0,.26-1.5Zm4.78,7.53a4.35,4.35,0,0,0-1.41,2.75c0,1.39,1.18,2.06,3.6,2.06a12.32,12.32,0,0,0,4.31-.66l.19,1.44c-.24,0-.28,0-.66.09a19.29,19.29,0,0,1-3.84.37c-2.14,0-3.48-.45-4.29-1.42a2.66,2.66,0,0,1-.56-1.72,5.18,5.18,0,0,1,1.63-3.49ZM258.05,141a12.74,12.74,0,0,0,3.19.28,20.13,20.13,0,0,0,5-.51l.09,1.33-1.29.17a31.78,31.78,0,0,1-4,.24,25,25,0,0,1-3-.19Z"/><path class="cls-1" d="M271.69,149.63a19.11,19.11,0,0,1,3.77,4l-1,1a18.71,18.71,0,0,0-3.69-4.09Z"/><path class="cls-1" d="M286.42,153.32a7.92,7.92,0,0,0-1-1.41l1.07-.41a10.61,10.61,0,0,1,1.1,1.82h3.32a7.26,7.26,0,0,0,1-1.82l1.1.43a9.77,9.77,0,0,1-.9,1.39h3.41a13.9,13.9,0,0,0,2-.11v1.26a11.52,11.52,0,0,0-2-.13H282.94a12.41,12.41,0,0,0-2.06.13v-1.26a15.57,15.57,0,0,0,2.06.11ZM297.29,147a15.33,15.33,0,0,0-2.08-.11H283.1a14.34,14.34,0,0,0-2,.11v-1.22a11.12,11.12,0,0,0,2,.13h12.11a11.92,11.92,0,0,0,2.08-.13ZM294,139a15.92,15.92,0,0,0,2-.09,9.8,9.8,0,0,0-.08,1.48v2.92a9.65,9.65,0,0,0,.08,1.48,19.59,19.59,0,0,0-2-.08H284.4a16.13,16.13,0,0,0-2,.08,9.81,9.81,0,0,0,.08-1.48v-2.92a10.28,10.28,0,0,0-.08-1.48,15.74,15.74,0,0,0,2,.09h2.12a6.77,6.77,0,0,0-.11-1.52h1.33a6.49,6.49,0,0,0-.13,1.42V139h3a6.78,6.78,0,0,0-.11-1.52h1.33a7.17,7.17,0,0,0-.13,1.52Zm-10.72,10.16a6.7,6.7,0,0,0-.09-1.31,18,18,0,0,0,2.17.09h7.55a17.46,17.46,0,0,0,2.14-.09,6.49,6.49,0,0,0-.09,1.31v1a6.75,6.75,0,0,0,.09,1.29c-.64-.06-1.24-.07-2.1-.07h-7.63a20.15,20.15,0,0,0-2.14.07,6.85,6.85,0,0,0,.09-1.29Zm.3-9.24v1.44h2.94v-1.44Zm0,2.31v1.61h2.94v-1.61Zm.9,8.26h9.29v-1.63h-9.29Zm3.13-9.13h3v-1.44h-3Zm0,2.47h3v-1.61h-3Zm4.07-2.47h3.17v-1.44h-3.17Zm0,2.47h3.17v-1.61h-3.17Z"/><path class="cls-1" d="M300.63,143c.67,0,2.62-.24,4.14-.49a22.91,22.91,0,0,0,.56-4v-.24l1.5.17a11.72,11.72,0,0,0-.36,1.8c-.09.54-.23,1.24-.39,2.14a10.92,10.92,0,0,1,1.11-.06,3.58,3.58,0,0,1,2.7.79c.66.62.92,1.48.92,3,0,2.87-.49,5.36-1.26,6.45a2,2,0,0,1-1.84.88,7.05,7.05,0,0,1-2.83-.73,4,4,0,0,0,0-.66,3.6,3.6,0,0,0-.06-.75,7,7,0,0,0,2.79.86q.7,0,1.07-.9a14.52,14.52,0,0,0,.79-5.21c0-2-.56-2.62-2.31-2.62a10.79,10.79,0,0,0-1.35.09A35.29,35.29,0,0,1,303,151.5c-.24.45-.64,1.2-1.22,2.25l-1.27-.75a18,18,0,0,0,1.95-3.39,31,31,0,0,0,2.06-5.94c-1.61.24-2.51.39-2.68.43a10.57,10.57,0,0,0-1.09.24Zm12.31-1.72a16.94,16.94,0,0,1,3.92,6.63l-1.2.69a15.33,15.33,0,0,0-3.82-6.73Z"/><path class="cls-1" d="M325.19,138.36a5.83,5.83,0,0,0-.3,1.2c-.13.64-.24,1.09-.51,2a15.62,15.62,0,0,0,3.35-.62l.05,1.29-.66.11a22.65,22.65,0,0,1-3.07.39,34.9,34.9,0,0,1-2.08,5.47c-.45.9-.62,1.22-1.33,2.46-.17.26-.28.49-.38.64L319,150.6a16.64,16.64,0,0,0,1.8-2.92,27.9,27.9,0,0,0,1.95-4.83l-1.39,0-1.24,0-.41,0h-.24l0-1.29a11.85,11.85,0,0,0,2.23.15l1.35,0a19.18,19.18,0,0,0,.64-3.52Zm8.9,14.54a10.72,10.72,0,0,0-3.28-2.55,3.79,3.79,0,0,1,0,.6c0,1.93-1.27,3-3.56,3s-3.65-1-3.65-2.72a2.66,2.66,0,0,1,1.74-2.38,5.46,5.46,0,0,1,2.21-.41,6.2,6.2,0,0,1,1.89.28c-.1-1.22-.13-2.1-.13-2.57a7.57,7.57,0,0,1,.19-1.82l1.27.13a5.76,5.76,0,0,0-.24,1.74,22.19,22.19,0,0,0,.21,2.85,13.49,13.49,0,0,1,3.67,2.27,1.81,1.81,0,0,0,.34.3Zm-6.6-3.35c-1.59,0-2.61.66-2.61,1.69s.9,1.54,2.38,1.54,2.34-.64,2.34-2c0-.22,0-.81,0-.81A5.56,5.56,0,0,0,327.49,149.55Zm6.58-5.1a20.33,20.33,0,0,0-5-2.55l.69-1.05a25.87,25.87,0,0,1,4.95,2.47Z"/><path class="cls-1" d="M338.18,140.65a15.8,15.8,0,0,0-.07-1.8,16.87,16.87,0,0,0,1.72.06h1.39a16,16,0,0,0,1.69-.06,13.75,13.75,0,0,0-.06,1.84V151c0,.9,0,1.39.06,1.8h-1.16v-.94h-2.45v1.54h-1.22a14.93,14.93,0,0,0,.11-2Zm1.11,4h2.45V140h-2.45Zm0,6.17h2.45v-5.15h-2.45Zm6.54-9.67a16.16,16.16,0,0,0-1.8.09V140a11,11,0,0,0,1.78.11h2v-.6a9.84,9.84,0,0,0-.11-1.52h1.39a9.12,9.12,0,0,0-.11,1.52v.6h2.66a11.32,11.32,0,0,0,1.78-.11v1.24a15.3,15.3,0,0,0-1.78-.09H349v2.44h3.32a12.42,12.42,0,0,0,1.89-.11v1.26a12,12,0,0,0-1.82-.11h-.62v2.19h.58a11.41,11.41,0,0,0,1.84-.11v1.29a12.42,12.42,0,0,0-1.84-.11h-.58v5.25c0,1.2-.41,1.48-2.16,1.48-.3,0-.6,0-1.69-.07a3.3,3.3,0,0,0-.3-1.24,13.67,13.67,0,0,0,2.14.23c.71,0,.84-.07.84-.49v-5.15h-5.28a14,14,0,0,0-1.87.11v-1.29a11.91,11.91,0,0,0,1.89.11h5.27v-2.19H345.3a13.69,13.69,0,0,0-1.89.11v-1.26a12.59,12.59,0,0,0,1.89.11h2.49V141.1Zm1.44,11.26a17,17,0,0,0-2.6-3.15l.92-.66a20.2,20.2,0,0,1,2.7,3.05Z"/><path class="cls-1" d="M362.2,140.75a7.91,7.91,0,0,0,.9-2.57l1.5.26a4,4,0,0,0-.49,1c-.24.6-.49,1.11-.58,1.27l.39,0a26.39,26.39,0,0,0,5.9-.71l.11,1.27a5.84,5.84,0,0,0-.75.09,60.37,60.37,0,0,1-6.18.49,13.82,13.82,0,0,1-1.69,2.66c-.19.22-.56.66-.64.71l-.24.19a0,0,0,0,1,0,0v0l0,.06c.68-.53.68-.53.86-.66a5,5,0,0,1,2.83-.92,2.27,2.27,0,0,1,2.47,2.08c1.37-.54,2.44-.94,3.26-1.24a4.13,4.13,0,0,0,1.27-.54l.6,1.31a31,31,0,0,0-5,1.65c0,.49,0,.67,0,1.14,0,.24,0,.66,0,1s0,.67,0,.84a4.17,4.17,0,0,0,0,.67l-1.27,0c.05-.41.11-1.56.11-2.7a5,5,0,0,0,0-.56c-2.55,1.2-3.52,2.08-3.52,3.2s1.16,1.78,3.8,1.78a15.71,15.71,0,0,0,5-.73l.17,1.44a7,7,0,0,0-.75.09,29.09,29.09,0,0,1-4.55.37c-3.35,0-5-1-5-2.89a3.87,3.87,0,0,1,1.91-3,14.49,14.49,0,0,1,2.79-1.5c-.15-1-.6-1.48-1.48-1.48a7,7,0,0,0-4.18,2,6.22,6.22,0,0,0-1.44,1.56l-1-1a18.66,18.66,0,0,0,4.2-5.36l.17-.28a2.15,2.15,0,0,1-.36,0l-2.75-.06h-.3l-.41,0,0-1.29a26.1,26.1,0,0,0,4,.21Z"/><path class="cls-1" d="M384,138a13,13,0,0,0-.09,1.67,24.3,24.3,0,0,0,.41,4.07,16.4,16.4,0,0,0,2.42,5.25,16.58,16.58,0,0,0,2.77,3,13.86,13.86,0,0,0,2.17,1.46,4.29,4.29,0,0,0-1,1.18,17.19,17.19,0,0,1-5-4.8,16.18,16.18,0,0,1-2.44-6A15.92,15.92,0,0,1,382,148a12.59,12.59,0,0,1-2.68,3.84,15.93,15.93,0,0,1-3.45,2.74,3.57,3.57,0,0,0-1-1.11,13.22,13.22,0,0,0,3.82-2.83c2.61-2.79,3.88-6.39,3.88-11a13,13,0,0,0-.07-1.65Z"/><path class="cls-1" d="M393.72,140a6.14,6.14,0,0,0,.88.06,15.92,15.92,0,0,0,4.95-.6l.79,1.18a9,9,0,0,0-2.19,2,9.57,9.57,0,0,0-2.57,6,3.67,3.67,0,0,0,3.69,3.88,4.26,4.26,0,0,0,3.86-2.57,9.62,9.62,0,0,0,.68-3.9,15.44,15.44,0,0,0-1.16-6l1.35-.45a14.54,14.54,0,0,0,1.76,3.41,12.85,12.85,0,0,0,2.7,2.92,2.71,2.71,0,0,0,.69.45l-.71,1.29c-.34-.32-.34-.32-.77-.67a12.45,12.45,0,0,1-2.38-2.75c-.3-.49-.45-.71-.64-1.07l-.37-.67a12,12,0,0,1,.75,4.27,9.66,9.66,0,0,1-.73,3.82,5.37,5.37,0,0,1-5,3.26,4.87,4.87,0,0,1-5-5.21,10.09,10.09,0,0,1,2.49-6.24,9.46,9.46,0,0,1,1.69-1.67,16.58,16.58,0,0,1-4.18.58l-.54,0Zm12.56-1.16a13.42,13.42,0,0,1,1.78,2.74l-.92.51a14.2,14.2,0,0,0-1.76-2.79ZM408,138a14.44,14.44,0,0,1,1.8,2.62l-.9.52a12.63,12.63,0,0,0-1.78-2.7Z"/><path class="cls-1" d="M416.48,138.36a32.63,32.63,0,0,0,1.41,6.2c1.11-.45,1.63-.66,4.53-1.67a9.9,9.9,0,0,0,1.2-.49l.56,1.42a43.14,43.14,0,0,0-5.64,1.82c-3.2,1.27-4.59,2.51-4.59,4.07,0,1.71,1.44,2.36,5.12,2.36a18.61,18.61,0,0,0,5.36-.64l.15,1.56a9.69,9.69,0,0,0-1.39.11,37.51,37.51,0,0,1-4.14.24,12.74,12.74,0,0,1-4.16-.51,3.11,3.11,0,0,1-2.32-3.07,4.05,4.05,0,0,1,1.67-3.19,11.62,11.62,0,0,1,2.46-1.52,38.06,38.06,0,0,1-1.37-5.25,6.33,6.33,0,0,0-.32-1.18Z"/><path class="cls-1" d="M433.45,138.36a32.62,32.62,0,0,0,1.41,6.2c1.11-.45,1.63-.66,4.53-1.67a9.88,9.88,0,0,0,1.2-.49l.56,1.42a43.08,43.08,0,0,0-5.64,1.82c-3.2,1.27-4.59,2.51-4.59,4.07,0,1.71,1.44,2.36,5.12,2.36a18.61,18.61,0,0,0,5.36-.64l.15,1.56a9.69,9.69,0,0,0-1.39.11,37.51,37.51,0,0,1-4.14.24,12.73,12.73,0,0,1-4.16-.51,3.11,3.11,0,0,1-2.32-3.07,4.05,4.05,0,0,1,1.67-3.19,11.62,11.62,0,0,1,2.46-1.52,38.07,38.07,0,0,1-1.37-5.25,6.33,6.33,0,0,0-.32-1.18Z"/><path class="cls-1" d="M449.88,139.94a10.22,10.22,0,0,0-.13-1.93h1.46a12.5,12.5,0,0,0-.11,1.93v1.74H456V140a11.5,11.5,0,0,0-.11-1.95h1.48a11.58,11.58,0,0,0-.13,1.93v1.72h2a14.54,14.54,0,0,0,2-.11v1.33a16.87,16.87,0,0,0-2-.09h-2v4.74h2.44a17.68,17.68,0,0,0,2.25-.13v1.41a18.39,18.39,0,0,0-2.25-.13H447.52a17.53,17.53,0,0,0-2.17.13v-1.41a14.1,14.1,0,0,0,2.17.13h2.36v-4.74h-1.82a12.85,12.85,0,0,0-1.89.09v-1.33a13.66,13.66,0,0,0,1.89.11h1.82Zm2,10.33a14.57,14.57,0,0,1-3,2.9,14,14,0,0,1-2.57,1.46,3.55,3.55,0,0,0-.88-1,12.5,12.5,0,0,0,3-1.61,9.64,9.64,0,0,0,2.36-2.42Zm4.12-2.72v-4.74H451.1v4.74Zm.28,2a9.39,9.39,0,0,0,2.53,2.49,15.32,15.32,0,0,0,3,1.61,3.65,3.65,0,0,0-.88,1.09,15.57,15.57,0,0,1-3.24-2,16.5,16.5,0,0,1-2.49-2.49Z"/><path class="cls-1" d="M468.07,139a26.61,26.61,0,0,0-.79,3,27.69,27.69,0,0,0-.56,5.87c0,1.46,0,2.57.11,3.56a17.34,17.34,0,0,1,1.22-3.65l.9.43a16.32,16.32,0,0,0-1.52,5.15v.28l-1.35.11c0-.3-.06-.39-.11-.75a26.79,26.79,0,0,1-.49-5.3,31,31,0,0,1,.84-7.42,10.11,10.11,0,0,0,.26-1.5Zm4.78,7.53a4.35,4.35,0,0,0-1.41,2.75c0,1.39,1.18,2.06,3.6,2.06a12.32,12.32,0,0,0,4.31-.66l.19,1.44c-.24,0-.28,0-.66.09a19.29,19.29,0,0,1-3.84.37c-2.14,0-3.48-.45-4.29-1.42a2.66,2.66,0,0,1-.56-1.72,5.18,5.18,0,0,1,1.63-3.49ZM470.47,141a12.74,12.74,0,0,0,3.19.28,20.13,20.13,0,0,0,5-.51l.09,1.33-1.29.17a31.78,31.78,0,0,1-4,.24,25,25,0,0,1-3-.19Z"/><path class="cls-1" d="M489.91,139a7.47,7.47,0,0,0-.11-1.37h1.41a7.29,7.29,0,0,0-.11,1.37v.45h6.07a13,13,0,0,0,1.93-.11v1.24a15.09,15.09,0,0,0-1.87-.09h-7.89a20.22,20.22,0,0,1-1.61,2.34c2.53-.06,4.35-.15,7-.36a16.7,16.7,0,0,0-2-1.18l.94-.62a32,32,0,0,1,4.87,3.28l-.86.86a19.25,19.25,0,0,0-1.76-1.48q-5.25.53-11.77.64a6,6,0,0,0-.84.06l-.23-1.24a20.61,20.61,0,0,0,2.1.08l1.22,0a13.91,13.91,0,0,0,1.63-2.36h-3.64a18.86,18.86,0,0,0-1.89.09V139.3a13,13,0,0,0,1.93.11h5.49Zm-3.69,12.16v1.5a15,15,0,0,0,.09,2.06h-1.37a17.7,17.7,0,0,0,.11-2.14V146.7a12.81,12.81,0,0,0-.09-1.8,20,20,0,0,0,2.17.07h7.31a16.93,16.93,0,0,0,2-.07,17.41,17.41,0,0,0-.08,2V153c0,1.12-.45,1.48-1.87,1.48-.13,0-.88,0-2.23-.07a3.41,3.41,0,0,0-.28-1.12,20.11,20.11,0,0,0,2.4.17c.71,0,.82-.07.82-.54v-1.74Zm9-5.13h-9v1.54h9Zm-9,2.53v1.61h9v-1.61Z"/><path class="cls-1" d="M503.23,139.34a8.9,8.9,0,0,0,1.82.11c1,0,2.53-.06,3.15-.13a1.38,1.38,0,0,0,.69-.23l1,.79c-.24.34-.28.45-1,2.72-.41,1.27-.54,1.63-.88,2.62a14.67,14.67,0,0,1,5.12,1.48,21.09,21.09,0,0,0,.23-3.8,4.51,4.51,0,0,0-.07-.92l1.41,0a7,7,0,0,0-.08,1.16,25.82,25.82,0,0,1-.34,4.07c1,.52,1.65.86,2.57,1.41a3.51,3.51,0,0,0,.54.28l-.51,1.44a21.58,21.58,0,0,0-2.92-1.85,8.87,8.87,0,0,1-1.93,3.39,10.13,10.13,0,0,1-3,2.29,4.82,4.82,0,0,0-1-1,8.24,8.24,0,0,0,3-2.16,7.28,7.28,0,0,0,1.72-3.15,13.8,13.8,0,0,0-5.17-1.56,36.51,36.51,0,0,1-1.76,4.52c-.68,1.29-1.37,1.85-2.27,1.85-1.4,0-2.47-1.33-2.47-3.07a4.21,4.21,0,0,1,2.23-3.71,6.14,6.14,0,0,1,3.37-.81c.62-1.84.84-2.55,1.5-4.72-1.48.11-1.76.13-3.54.19a10.3,10.3,0,0,0-1.37.09Zm0,8.13a3.12,3.12,0,0,0-.9,2.16c0,1,.54,1.78,1.22,1.78s1.41-1.16,2.77-5.15A4.55,4.55,0,0,0,503.23,147.47Z"/><path class="cls-1" d="M6.73,125.92a6.91,6.91,0,0,0,1.86.16h.25c0-.24,0-.24,0-.74,0-.11,0-.5,0-.57a1,1,0,0,0,0-.15l.77,0A6.59,6.59,0,0,0,9.47,126a15.22,15.22,0,0,0,3.78-.56l0,.69-.35,0a27.68,27.68,0,0,1-3.51.4c-.06.84-.06.84-.07,1.33a5.24,5.24,0,0,1,1.47-.2c.21,0,.33,0,.58,0a3.72,3.72,0,0,0,.24-.89l.68.21c0,.06-.14.33-.31.79a2.39,2.39,0,0,1,2.13,2.32,2.55,2.55,0,0,1-1.56,2.29,5.48,5.48,0,0,1-2,.57,2.05,2.05,0,0,0-.32-.67,4.61,4.61,0,0,0,1.49-.27,2.19,2.19,0,0,0,1.71-2c0-.85-.57-1.45-1.64-1.73a8.94,8.94,0,0,1-1.89,3,3.26,3.26,0,0,1-2.21,1.2,1.36,1.36,0,0,1-1.28-1.51,3.38,3.38,0,0,1,2.3-3c0-.72,0-.77.06-1.5H8.4l-1.34,0H6.72Zm1,3.67a2.34,2.34,0,0,0-.61,1.48c0,.55.29.9.72.9a1.79,1.79,0,0,0,1.14-.51,14,14,0,0,1-.2-2.69A3.55,3.55,0,0,0,7.68,129.59Zm1.82,1.47a1,1,0,0,1,.19-.26,9,9,0,0,0,1.52-2.48l-.48,0a4.49,4.49,0,0,0-1.38.23,16.83,16.83,0,0,0,.11,2.27.64.64,0,0,1,0,.14V131Z"/><path class="cls-1" d="M18,124.93a15.41,15.41,0,0,0-.13,2.09c0,1.19-.07,2.54-.07,3,0,.12,0,.37,0,.6a1.56,1.56,0,0,0,.47,1.19,1.87,1.87,0,0,0,1.24.39,2.85,2.85,0,0,0,2.66-1.73,5.89,5.89,0,0,0,.49-1.56,2.78,2.78,0,0,0,.71.48,6,6,0,0,1-1.1,2.25,3.48,3.48,0,0,1-2.8,1.24,2.35,2.35,0,0,1-1.87-.69,2.77,2.77,0,0,1-.55-2c0-.67,0-.91.09-4,0-.3,0-.49,0-.64a3.11,3.11,0,0,0,0-.53Z"/><path class="cls-1" d="M25.27,126.44a6.85,6.85,0,0,0,1.24.09c.2,0,.31,0,.6,0a9.67,9.67,0,0,0,.22-1.83l.78.08a9.3,9.3,0,0,0-.18.94c0,.32-.08.46-.13.75a8.17,8.17,0,0,0,1.79-.34l0,.68-.28.05a14.7,14.7,0,0,1-1.68.24c-.15.78-.43,1.91-.69,2.81a26.31,26.31,0,0,1-1.14,3l-.73-.31A20,20,0,0,0,27,127.14H26.3c-.35,0-.44,0-.82,0h-.21Zm4.44,3.6a3.48,3.48,0,0,0-.3.38,1.2,1.2,0,0,0-.25.71c0,.6.61.91,1.74.91a7.38,7.38,0,0,0,2.19-.34l.07.75-.44.07a9.94,9.94,0,0,1-1.77.17c-1.63,0-2.47-.51-2.47-1.49,0-.45.14-.75.67-1.43Zm3.07-1.72a10,10,0,0,0-1.17-.07,8.65,8.65,0,0,0-2.48.34l-.07-.67a11.26,11.26,0,0,1,2.63-.33l1.08,0Z"/><path class="cls-1" d="M76.7,192.32a12.11,12.11,0,0,0,.11,1.84H75.42a12.74,12.74,0,0,0,.11-1.86v-5.83a19.27,19.27,0,0,1-2.59,2.21,3.52,3.52,0,0,0-.69-1.05,16.14,16.14,0,0,0,3.37-2.77A12.71,12.71,0,0,0,78,181.38h-3.5a12.88,12.88,0,0,0-1.5.08v-1.24a12.41,12.41,0,0,0,1.46.07h1.1v-1.74a10.69,10.69,0,0,0-.09-1.44h1.41a8,8,0,0,0-.11,1.46v1.72H77.8a6.79,6.79,0,0,0,1.09-.06l.58.66c-.13.21-.24.41-.45.81A16.18,16.18,0,0,1,77,184.88a11.33,11.33,0,0,0,3,2.55,4.59,4.59,0,0,0-.64,1,12.19,12.19,0,0,1-2.64-2.36Zm6.5-13.46a11.18,11.18,0,0,0-.13-1.71h1.48a8.9,8.9,0,0,0-.13,1.71v4h2.45a12.24,12.24,0,0,0,1.84-.11v1.31c-.58-.06-1.18-.09-1.84-.09H84.42v8h3a13,13,0,0,0,2-.11v1.41a12.71,12.71,0,0,0-2-.13H80.63a12.32,12.32,0,0,0-2,.13v-1.41a13,13,0,0,0,2,.11H83.2v-8H81.34c-.64,0-1.25,0-1.84.09V182.8a12.09,12.09,0,0,0,1.84.11H83.2Z"/><path class="cls-1" d="M100.88,177.23a12.57,12.57,0,0,0,3.15,3.35,20.2,20.2,0,0,0,5.17,3,4,4,0,0,0-.73,1.2,25.77,25.77,0,0,1-5.21-3.26,15.57,15.57,0,0,1-3-3.2,16.17,16.17,0,0,1-2.81,3.07,20.58,20.58,0,0,1-5.06,3.3,3.74,3.74,0,0,0-.79-1.07,19.65,19.65,0,0,0,5-3.05,13.81,13.81,0,0,0,3-3.34Zm-6.33,10.46a16.06,16.06,0,0,0-2.14.11v-1.35a16.06,16.06,0,0,0,2.14.11h11.54a15.87,15.87,0,0,0,2.14-.11v1.35a16.26,16.26,0,0,0-2.14-.11H99.36A28.21,28.21,0,0,1,97,192.11c2.59-.17,4.54-.36,7.31-.69-1.12-1.22-1.46-1.56-2.29-2.32l1-.6a40.65,40.65,0,0,1,4.54,4.95l-1,.77c-.73-1-1-1.35-1.37-1.84-3.34.45-6.17.75-9.09,1a22.5,22.5,0,0,0-3.17.34l-.22-1.42a8.63,8.63,0,0,0,1,.06c.3,0,.3,0,2-.11A28.26,28.26,0,0,0,98,187.69Zm1.2-4.67a9.81,9.81,0,0,0,1.48.07h6.05a11.27,11.27,0,0,0,1.57-.07v1.26a11.47,11.47,0,0,0-1.57-.08H97.21a10.7,10.7,0,0,0-1.46.08Z"/><path class="cls-1" d="M114.93,178.34a26.65,26.65,0,0,0-.79,3,27.7,27.7,0,0,0-.56,5.87c0,1.46,0,2.57.11,3.56a17.33,17.33,0,0,1,1.22-3.65l.9.43a16.32,16.32,0,0,0-1.52,5.15V193l-1.35.11c0-.3-.06-.39-.11-.75a26.78,26.78,0,0,1-.49-5.3,31,31,0,0,1,.84-7.42,10.13,10.13,0,0,0,.26-1.5Zm4.78,7.53a4.35,4.35,0,0,0-1.41,2.75c0,1.39,1.18,2.06,3.6,2.06a12.32,12.32,0,0,0,4.31-.66l.19,1.44c-.24,0-.28,0-.66.09a19.29,19.29,0,0,1-3.84.37c-2.14,0-3.48-.45-4.29-1.42a2.66,2.66,0,0,1-.56-1.72,5.18,5.18,0,0,1,1.63-3.49Zm-2.38-5.55a12.74,12.74,0,0,0,3.19.28,20.13,20.13,0,0,0,5-.51l.09,1.33-1.29.17a31.78,31.78,0,0,1-4,.24,25,25,0,0,1-3-.19Z"/><path class="cls-1" d="M135.29,180.06a13,13,0,0,0,1.14-3.11l1.41.23c-.09.21-.21.47-.47,1.11-.32.82-.54,1.31-.77,1.78h6.93a11.54,11.54,0,0,0,1.56-.07,14,14,0,0,0-.08,1.65v10.49c0,1.16-.41,1.46-2,1.46a22.38,22.38,0,0,1-2.31-.11,3.7,3.7,0,0,0-.32-1.24,22.24,22.24,0,0,0,2.66.21c.66,0,.77-.08.77-.54V181.17H131.45v10.76a9.36,9.36,0,0,0,.13,1.84h-1.46a8.91,8.91,0,0,0,.11-1.84V181.68c0-.64,0-1.11-.06-1.69a10.92,10.92,0,0,0,1.52.07Zm5.62,7.8a8.28,8.28,0,0,0,.11,1.5c-.41,0-1.22-.06-1.69-.06h-4v1.42H134a11.79,11.79,0,0,0,.11-1.59v-4.2a8.46,8.46,0,0,0-.09-1.39,8.39,8.39,0,0,0,1.27.07h4.38a8.68,8.68,0,0,0,1.29-.07,8,8,0,0,0-.1,1.41Zm-5.62.39h4.46v-3.58h-4.46Z"/><path class="cls-1" d="M151.93,178.28a32.36,32.36,0,0,0-1.14,8.17c0,1,.08,2.42.15,3.05a6.73,6.73,0,0,1,.11,1,20.45,20.45,0,0,1,1.57-4l1,.45a35.45,35.45,0,0,0-1.39,3.28,7.34,7.34,0,0,0-.52,2.38l-1.29.11a5.17,5.17,0,0,0-.15-.66,21.32,21.32,0,0,1-.69-5.55,38.54,38.54,0,0,1,.75-7.22,9.35,9.35,0,0,0,.17-1.29Zm1.91,3.78a15.11,15.11,0,0,0,3.19.24c.75,0,1.44,0,2.38-.11a36.6,36.6,0,0,0-.23-4.37l1.44,0a4.27,4.27,0,0,0-.06.64c0,.13,0,.22,0,.56s0,.43.11,3a9.89,9.89,0,0,0,3-.79l.09,1.35a9.61,9.61,0,0,0-1,.22,17.64,17.64,0,0,1-2,.38c0,.51,0,.81,0,1.35,0,3.56-.34,5.1-1.44,6.6a9,9,0,0,1-2.94,2.42,4.33,4.33,0,0,0-1-1,7.7,7.7,0,0,0,2.87-2.16c1-1.22,1.25-2.59,1.25-5.58,0-.52,0-.94,0-1.48-.82.08-1.91.11-2.74.11-.53,0-1.59,0-2.27-.08l-.34,0-.28,0Z"/><path class="cls-1" d="M167.27,180.36h.67c.26,0,.49,0,1.07-.06,2.23-.17,8.23-.51,10.64-.62a12.63,12.63,0,0,0,2.23-.21l.11,1.41a8.71,8.71,0,0,0-2.1.24,9.51,9.51,0,0,0-3.6,1.89,5.73,5.73,0,0,0-2.31,4.33,3.67,3.67,0,0,0,2.62,3.47,9.58,9.58,0,0,0,2.81.6h.19l-.24,1.52-.58-.11a9.46,9.46,0,0,1-4-1.44,4.56,4.56,0,0,1-2.08-3.82,7.1,7.1,0,0,1,3.5-5.75,12.28,12.28,0,0,1,1.78-1,36.23,36.23,0,0,1-4.12.41,55,55,0,0,0-6.47.62Z"/><path class="cls-1" d="M186.58,189a19.11,19.11,0,0,1,3.77,4l-1,1a18.71,18.71,0,0,0-3.69-4.09Z"/><path class="cls-1" d="M197.21,187.37a6.82,6.82,0,0,0-1.54.11v-1.24a7,7,0,0,0,1.57.11h2.29v-1a3.52,3.52,0,0,0-.09-.77h1.25a3.52,3.52,0,0,0-.07.77v1h2.06a7.29,7.29,0,0,0,1.52-.11v1.22a8.21,8.21,0,0,0-1.52-.09h-1.78a7.91,7.91,0,0,0,2.64,2.38,4.63,4.63,0,0,0-.66,1,9.64,9.64,0,0,1-2.34-2.59c0,.41.06,1,.08,1.65v2.72a10.58,10.58,0,0,0,.09,1.61h-1.29a10.32,10.32,0,0,0,.11-1.61v-2.66c0-.45,0-.94.05-1.56a11.1,11.1,0,0,1-3.54,4.16,3.8,3.8,0,0,0-.71-1,12.57,12.57,0,0,0,2.44-2.06,8.91,8.91,0,0,0,1.37-2Zm3.33-4.18a9.9,9.9,0,0,0,1.26-3.07l1.12.36a19.78,19.78,0,0,1-1.27,2.72h1.11a8.21,8.21,0,0,0,1.52-.09v1.26a8.82,8.82,0,0,0-1.52-.09h-5.57a8.62,8.62,0,0,0-1.55.09V183.1a8.29,8.29,0,0,0,1.55.09Zm1.91-4.31a8.64,8.64,0,0,0,1.57-.09V180a9.54,9.54,0,0,0-1.59-.09h-4.8A9.47,9.47,0,0,0,196,180v-1.26a9,9,0,0,0,1.65.09h1.88v-.51a6.63,6.63,0,0,0-.09-1.31h1.37a6.24,6.24,0,0,0-.1,1.31v.51ZM198.17,183a10.41,10.41,0,0,0-1.07-2.51l1-.37a11.18,11.18,0,0,1,1.07,2.53Zm12.84,0a9.51,9.51,0,0,0,1.72-.11v1.29a9.73,9.73,0,0,0-1.65-.09h-.69v8.17a9.35,9.35,0,0,0,.11,1.87h-1.44a11.35,11.35,0,0,0,.11-1.87v-8.17h-2.94v.73a20.58,20.58,0,0,1-1.07,6.73,9.74,9.74,0,0,1-1.39,2.57,4,4,0,0,0-1.07-.79c1.8-2.21,2.36-4.84,2.36-11.09,0-2.12,0-2.92-.09-3.47h.22a18.08,18.08,0,0,0,4.44-.86,5.93,5.93,0,0,0,1.72-.81l1,1a6,6,0,0,0-.68.26,22.8,22.8,0,0,1-5.4,1.39v3.2Z"/><path class="cls-1" d="M215.61,181a13,13,0,0,0,2.34.17c.38,0,.58,0,1.12,0a18.35,18.35,0,0,0,.41-3.45l1.48.15c-.11.45-.11.45-.34,1.78-.09.6-.15.86-.24,1.42a15.5,15.5,0,0,0,3.37-.64l.09,1.29-.52.09a27.5,27.5,0,0,1-3.17.45c-.28,1.48-.81,3.6-1.31,5.3a49.61,49.61,0,0,1-2.16,5.72l-1.37-.58a37.73,37.73,0,0,0,3.52-10.36c-.38,0-.6,0-1.29,0s-.82,0-1.55,0h-.08l-.32,0Zm8.38,6.8a6,6,0,0,0-.56.71,2.25,2.25,0,0,0-.47,1.33c0,1.12,1.14,1.72,3.28,1.72a14,14,0,0,0,4.14-.64l.13,1.41-.82.13a18.75,18.75,0,0,1-3.34.32c-3.07,0-4.67-1-4.67-2.81,0-.84.26-1.42,1.26-2.7Zm5.79-3.24a18.68,18.68,0,0,0-2.21-.13,16.34,16.34,0,0,0-4.69.64l-.13-1.27a21.27,21.27,0,0,1,5-.62c.36,0,.64,0,2,.06Z"/><path class="cls-1" d="M239.68,177.74a5.84,5.84,0,0,0-.3,1.2c-.13.64-.24,1.09-.51,2a15.62,15.62,0,0,0,3.35-.62l.05,1.29-.66.11a22.65,22.65,0,0,1-3.07.39,34.9,34.9,0,0,1-2.08,5.47c-.45.9-.62,1.22-1.33,2.46-.17.26-.28.49-.38.64L233.5,190a16.64,16.64,0,0,0,1.8-2.92,27.9,27.9,0,0,0,1.95-4.83l-1.39,0-1.24,0-.41,0H234l0-1.29a11.85,11.85,0,0,0,2.23.15l1.35,0a19.18,19.18,0,0,0,.64-3.52Zm8.9,14.54a10.72,10.72,0,0,0-3.28-2.55,3.79,3.79,0,0,1,0,.6c0,1.93-1.27,3-3.56,3s-3.65-1-3.65-2.72a2.66,2.66,0,0,1,1.74-2.38,5.46,5.46,0,0,1,2.21-.41,6.2,6.2,0,0,1,1.89.28c-.1-1.22-.13-2.1-.13-2.57a7.57,7.57,0,0,1,.19-1.82l1.27.13a5.76,5.76,0,0,0-.24,1.74,22.18,22.18,0,0,0,.21,2.85,13.49,13.49,0,0,1,3.67,2.27,1.81,1.81,0,0,0,.34.3Zm-6.6-3.35c-1.59,0-2.61.66-2.61,1.69s.9,1.54,2.38,1.54,2.34-.64,2.34-2c0-.22,0-.81,0-.81A5.56,5.56,0,0,0,242,188.93Zm6.58-5.1a20.33,20.33,0,0,0-5-2.55l.69-1.05a25.87,25.87,0,0,1,4.95,2.47Z"/><path class="cls-1" d="M253.57,185.69c0-.94,0-1.41.05-2.25a15.55,15.55,0,0,1-1.65,2.68,4.5,4.5,0,0,0-.75-1,16.51,16.51,0,0,0,3.15-5.49,12,12,0,0,0,.71-2.64l1.25.45c-.13.34-.19.47-.36,1a25.88,25.88,0,0,1-1.27,3.28V192a17.73,17.73,0,0,0,.09,2.19h-1.35a18.62,18.62,0,0,0,.11-2.25Zm13-3a11.76,11.76,0,0,0,1.65-.07,11.79,11.79,0,0,0-.07,1.63V192a14.18,14.18,0,0,0,.11,2H267v-1.24h-9.24V194h-1.27a15.58,15.58,0,0,0,.11-2v-7.66a15.1,15.1,0,0,0-.09-1.7,13.15,13.15,0,0,0,1.67.07h1.87v-3.26H258.4a14.36,14.36,0,0,0-1.95.11v-1.31a13.74,13.74,0,0,0,1.95.11c1.8,0,3.65.06,5.6.06a41.17,41.17,0,0,0,4.89-.17v1.31a14,14,0,0,0-1.95-.11h-2.32v3.26Zm-8.83,1v7.95h2.29v-7.95Zm5.73-4.31h-2.32v3.26h2.32Zm-2.32,12.26h2.32v-7.95h-2.32Zm3.45,0H267v-7.95h-2.38Z"/><path class="cls-1" d="M273.19,185.57c0-1,0-1.29.08-2.27a14.53,14.53,0,0,1-1.72,2.72,5.19,5.19,0,0,0-.75-1,15.75,15.75,0,0,0,3.11-5.25,10.93,10.93,0,0,0,.71-2.64l1.29.34c-.13.36-.19.52-.36,1a23.22,23.22,0,0,1-1.22,3.11v10.31c0,.9,0,1.56.09,2.19h-1.35a18.65,18.65,0,0,0,.11-2.25Zm3,8.58a18.3,18.3,0,0,0,.09-2.31v-8.26a14.08,14.08,0,0,0-.11-2h1.33a19,19,0,0,0-.09,2V192h8.85a12.56,12.56,0,0,0,1.91-.09v1.27a14.44,14.44,0,0,0-1.93-.11H277.4v1.07Zm1.91-14a14.93,14.93,0,0,0-1.74.08V179a11.2,11.2,0,0,0,1.8.09h3.78c.11-.75.13-1,.21-1.87l1.22.08c-.15.92-.19,1.18-.3,1.8h3.56a8.62,8.62,0,0,0,1.74-.11v1.24a11.75,11.75,0,0,0-1.67-.09h-3.84c-.17.75-.17.75-.41,1.78h2.89c.75,0,1.22,0,1.63-.06,0,.49-.06.77-.06,1.78v5.45c0,.73,0,1.09.06,1.59-.64,0-1-.06-1.65-.06h-4.37c-.62,0-1,0-1.63.06,0-.43.06-.92.06-1.52v-5.7l0-.71v-.34a4.14,4.14,0,0,0-.06-.56c.47,0,.88.06,1.57.06h.45c.21-.79.3-1.18.43-1.78Zm2.34,4.33h5.4v-1.59h-5.4Zm0,2.57h5.4v-1.61h-5.4Zm0,2.64h5.4V188h-5.4Z"/><path class="cls-1" d="M296.08,180.12a7.91,7.91,0,0,0,.9-2.57l1.5.26a4,4,0,0,0-.49,1c-.24.6-.49,1.11-.58,1.27l.39,0a26.39,26.39,0,0,0,5.9-.71l.11,1.27a5.77,5.77,0,0,0-.75.09,60.45,60.45,0,0,1-6.19.49,13.82,13.82,0,0,1-1.69,2.66c-.19.22-.56.66-.64.71l-.24.19a0,0,0,0,1,0,0v0l0,.06c.68-.53.68-.53.86-.66a5,5,0,0,1,2.83-.92,2.27,2.27,0,0,1,2.47,2.08c1.37-.54,2.44-.94,3.26-1.24a4.13,4.13,0,0,0,1.27-.54l.6,1.31a31,31,0,0,0-5,1.65c0,.49,0,.67,0,1.14,0,.24,0,.66,0,1s0,.67,0,.84a4,4,0,0,0,0,.67l-1.27,0c.05-.41.11-1.56.11-2.7a5,5,0,0,0,0-.56c-2.55,1.2-3.52,2.08-3.52,3.2s1.16,1.78,3.8,1.78a15.71,15.71,0,0,0,5-.73l.17,1.44a7,7,0,0,0-.75.09,29.09,29.09,0,0,1-4.55.37c-3.35,0-5-1-5-2.89a3.87,3.87,0,0,1,1.91-3,14.49,14.49,0,0,1,2.79-1.5c-.15-1-.6-1.48-1.48-1.48a7,7,0,0,0-4.18,2,6.22,6.22,0,0,0-1.44,1.56l-1-1a18.66,18.66,0,0,0,4.2-5.36l.17-.28a2.15,2.15,0,0,1-.36,0l-2.75-.06h-.3l-.41,0,0-1.29a26.1,26.1,0,0,0,4,.21Z"/><path class="cls-1" d="M314.64,177.27a7.67,7.67,0,0,0,1.37,1.46,13.52,13.52,0,0,0,2.72,1.87,4.37,4.37,0,0,0-.6,1,14.71,14.71,0,0,1-4-3.43,12.33,12.33,0,0,1-1.91,2.34,18.87,18.87,0,0,1-2.85,2.31,3.39,3.39,0,0,0-.79-.94,16,16,0,0,0,3.63-3,8.64,8.64,0,0,0,1.22-1.69Zm-3.32,10.59a13.61,13.61,0,0,1-1.84,5.55,4.4,4.4,0,0,0-1-.84c1.37-2.12,1.89-4.4,1.89-8.21a14.68,14.68,0,0,0-.08-1.76,17,17,0,0,0,1.82.08h4.2a12,12,0,0,0,1.46-.08,10.11,10.11,0,0,0-.07,1.42v2.49a9.51,9.51,0,0,0,.07,1.41c-.45,0-.75-.06-1.35-.06Zm1.16,5.28v.92H311.3a12.46,12.46,0,0,0,.1-1.56v-2.06c0-.73,0-1-.06-1.48a12.55,12.55,0,0,0,1.4.06h3.94a9.88,9.88,0,0,0,1.33-.07,9.93,9.93,0,0,0-.07,1.41v1.89a9.2,9.2,0,0,0,.1,1.54h-1.18v-.64Zm-1-7.5c0,.52,0,.73-.09,1.29h5.3v-1.29Zm5.21-.9v-1.16h-5.19v1.16Zm-4.54-4.18a6,6,0,0,0,1.12.08h1.93a5.78,5.78,0,0,0,1.11-.08v1a5.18,5.18,0,0,0-1-.07h-2a5.56,5.56,0,0,0-1.09.07Zm.34,11.64h4.33V190H312.5Zm8.6-13.7a10.7,10.7,0,0,0-.11,2v7.16a12.64,12.64,0,0,0,.09,2.1h-1.37a13.25,13.25,0,0,0,.09-2.1v-7.16a13.25,13.25,0,0,0-.11-2Zm4-1.22a13.36,13.36,0,0,0-.13,2.27V192c0,1.37-.38,1.65-2.21,1.65-.43,0-.88,0-1.72-.07a3.63,3.63,0,0,0-.34-1.2,13.88,13.88,0,0,0,2.27.19c.66,0,.81-.11.81-.56V179.58a13.57,13.57,0,0,0-.13-2.29Z"/><path class="cls-1" d="M328.24,184.67a7.58,7.58,0,0,0,1.44.09h1a8.61,8.61,0,0,0,1.44-.09,14.32,14.32,0,0,0-.09,2v3.67a2.84,2.84,0,0,0,1.67,1.71,10.24,10.24,0,0,0,4.22.54,54.58,54.58,0,0,0,7.53-.37,4.75,4.75,0,0,0-.43,1.37c-2,.09-4.12.13-6.33.13-3.19,0-4.24-.13-5.36-.66a4.34,4.34,0,0,1-1.93-1.76,16.66,16.66,0,0,1-2.25,2c-.17.13-.38.3-.68.58l-.62-1.24a12.53,12.53,0,0,0,3-2.27v-4.52h-1.24a7.15,7.15,0,0,0-1.37.09Zm1.2-7.1a23.15,23.15,0,0,1,3,3.34l-1,.84a17,17,0,0,0-3-3.43Zm5.92,3.26a12.65,12.65,0,0,1-1.27,1.87,2.84,2.84,0,0,0-1-.64,10.41,10.41,0,0,0,2.19-3.6,5.1,5.1,0,0,0,.24-1l1.2.36a.72.72,0,0,1-.07.17c-.11.23-.11.23-.34.77a10.06,10.06,0,0,1-.43,1h2.47v-.66a11.54,11.54,0,0,0-.11-1.93h1.35a9.36,9.36,0,0,0-.11,1.93v.66h2.7a8.57,8.57,0,0,0,1.78-.11v1.22a15.13,15.13,0,0,0-1.76-.07h-2.72v2.51H343a9.54,9.54,0,0,0,1.71-.09v1.22c-.58-.06-1.11-.09-1.71-.09h-8.3a15.53,15.53,0,0,0-1.67.09v-1.22a9.65,9.65,0,0,0,1.7.09h3.63v-2.51Zm1,10a13.36,13.36,0,0,0-1.87.09,11.76,11.76,0,0,0,.08-1.8v-1.57a11.09,11.09,0,0,0-.08-1.69,14,14,0,0,0,2,.09h4.91a14.58,14.58,0,0,0,2-.09,10.17,10.17,0,0,0-.08,1.82v1.42a10.16,10.16,0,0,0,.08,1.82,14.66,14.66,0,0,0-2-.09Zm-.68-1.05h6.47V187h-6.47Z"/><path class="cls-1" d="M351,178.11a28.5,28.5,0,0,0-.24,4c-.07,2.25-.13,4.8-.13,5.64,0,.23,0,.69,0,1.12a3,3,0,0,0,.88,2.25,3.54,3.54,0,0,0,2.34.73,5.38,5.38,0,0,0,5-3.26,11.12,11.12,0,0,0,.92-2.94,5.33,5.33,0,0,0,1.35.9,11.41,11.41,0,0,1-2.08,4.25,6.56,6.56,0,0,1-5.28,2.34,4.44,4.44,0,0,1-3.52-1.31c-.77-.88-1-1.87-1-3.84,0-1.26,0-1.72.17-7.63,0-.56,0-.92,0-1.22a5.71,5.71,0,0,0-.07-1Z"/><path class="cls-1" d="M364.55,185.31a3.93,3.93,0,0,0,.66,0c.13,0,.51,0,.75,0,.77-1,.77-1,1.29-1.8a20.38,20.38,0,0,0-2.68-3l.62-.88.92.92a13.54,13.54,0,0,0,1.63-3.54l1.14.54a4.63,4.63,0,0,0-.36.6,21.19,21.19,0,0,1-1.76,3.09c.56.62.64.71,1.11,1.29a15,15,0,0,0,1.78-3.34l1.07.64c-.21.3-.21.3-.94,1.54a46,46,0,0,1-2.62,3.82c1.65-.13,2-.15,2.62-.24a9.49,9.49,0,0,0-.67-1.56l.81-.36a16.32,16.32,0,0,1,1.31,3.39l-.88.39c-.11-.47-.15-.6-.26-1-.62.11-.79.13-1.41.21v6.22a12.93,12.93,0,0,0,.11,1.86h-1.31a13.88,13.88,0,0,0,.11-1.86v-6.11c-.88.09-1.27.13-1.63.15a7.68,7.68,0,0,0-1.22.15Zm2.08,2.25a19.92,19.92,0,0,1-1,5.42l-1-.52a15.08,15.08,0,0,0,1-5.1Zm3.67-.34a29.19,29.19,0,0,1,.88,3.88l-1,.34a18,18,0,0,0-.79-3.92Zm5-.71a7.93,7.93,0,0,0-.11,1.16,7.72,7.72,0,0,1-1.16,4,6.19,6.19,0,0,1-3,2.36,2.71,2.71,0,0,0-.82-1,5.17,5.17,0,0,0,3-2.19,6.71,6.71,0,0,0,.86-3.45,4.24,4.24,0,0,0-.08-.84ZM373.08,180a10.79,10.79,0,0,0-1.89.11v-1.22a13,13,0,0,0,1.91.11h2.32v-.41a9,9,0,0,0-.11-1.54h1.31a9,9,0,0,0-.11,1.56V179h2.81a12.88,12.88,0,0,0,1.89-.11v1.22a12.32,12.32,0,0,0-1.87-.11h-2.83v2h2.32a12.72,12.72,0,0,0,1.86-.11v1.22a12.15,12.15,0,0,0-1.84-.11h-5.42a12.74,12.74,0,0,0-1.85.11v-1.22a12.5,12.5,0,0,0,1.85.11h2v-2Zm-1.72,7.72a8.49,8.49,0,0,0,.08-1.2v-.94a6.76,6.76,0,0,0-.08-1.24c.38,0,.86.06,1.78.06h6.07a13.36,13.36,0,0,0,2-.09,10.85,10.85,0,0,0-.06,1.22v1.07a8.13,8.13,0,0,0,.06,1.12H380v-2.3h-7.5v2.3Zm6.67-1.24a8.91,8.91,0,0,0-.11,1.57v4c0,.37.19.45,1.07.45s1.07-.08,1.22-.39a7.17,7.17,0,0,0,.34-2.45,2.62,2.62,0,0,0,1.12.47,7.13,7.13,0,0,1-.54,2.68c-.34.62-.77.77-2.14.77-1.8,0-2.17-.21-2.17-1.22v-4.35a8.93,8.93,0,0,0-.11-1.57Z"/><path class="cls-1" d="M387.63,178.28a32.36,32.36,0,0,0-1.14,8.17c0,1,.08,2.42.15,3.05a6.73,6.73,0,0,1,.11,1,20.45,20.45,0,0,1,1.57-4l1,.45a35.5,35.5,0,0,0-1.39,3.28,7.34,7.34,0,0,0-.52,2.38l-1.29.11a5.14,5.14,0,0,0-.15-.66,21.32,21.32,0,0,1-.69-5.55,38.56,38.56,0,0,1,.75-7.22,9.32,9.32,0,0,0,.17-1.29Zm1.91,3.78a15.1,15.1,0,0,0,3.19.24c.75,0,1.44,0,2.38-.11a36.6,36.6,0,0,0-.23-4.37l1.44,0a4.27,4.27,0,0,0-.06.64c0,.13,0,.22,0,.56s0,.43.11,3a9.89,9.89,0,0,0,3-.79l.09,1.35a9.62,9.62,0,0,0-1,.22,17.63,17.63,0,0,1-2,.38c0,.51,0,.81,0,1.35,0,3.56-.34,5.1-1.44,6.6a9,9,0,0,1-2.94,2.42,4.33,4.33,0,0,0-1-1,7.7,7.7,0,0,0,2.87-2.16c1-1.22,1.25-2.59,1.25-5.58,0-.52,0-.94,0-1.48-.82.08-1.91.11-2.74.11-.53,0-1.59,0-2.27-.08l-.34,0-.28,0Z"/><path class="cls-1" d="M416.39,192.54a15.1,15.1,0,0,0-3.82-2.68c-.32-.17-.75-.36-1.26-.56a5.26,5.26,0,0,1,0,.67,3.26,3.26,0,0,1-.47,2,3.77,3.77,0,0,1-3.17,1.18,4.88,4.88,0,0,1-2.9-.75,2.45,2.45,0,0,1-1-2c0-1.24,1-2.21,2.62-2.59a8.17,8.17,0,0,1,1.95-.19,8.35,8.35,0,0,1,1.69.15.55.55,0,0,1,0-.23,1.51,1.51,0,0,1,0-.21c0-.17,0-.56,0-1.1,0-.24,0-.6,0-1.09-.67,0-1.61,0-2.21,0-1.12,0-2,0-3.17-.13-.21,0-.36,0-.47,0h-.15l0-1.24a23.08,23.08,0,0,0,4.29.3c.49,0,1.14,0,1.67,0l0-2.57c-.54,0-.84,0-1.27,0-1.37,0-2.89-.06-4.57-.19a2.31,2.31,0,0,0-.34,0,1.55,1.55,0,0,0-.26,0l0-1.27a23.24,23.24,0,0,0,4.8.38l1.63,0a14.64,14.64,0,0,0-.09-2.7h1.44a20.88,20.88,0,0,0-.13,2.64,26.44,26.44,0,0,0,5.55-.77l.09,1.27c-.32,0-.32,0-1.29.15a39,39,0,0,1-4.35.45c0,1.54,0,1.54,0,2.53a22.64,22.64,0,0,0,5.19-.77l.08,1.29c-.24,0-.43,0-1.09.13-1.29.21-2.77.36-4.16.45,0,1,0,1,.11,2.87a16.42,16.42,0,0,1,5.23,2.74,6.41,6.41,0,0,0,.64.43ZM410.06,189a6.83,6.83,0,0,0-1.91-.21c-1.86,0-3.07.67-3.07,1.67S406,192,407.64,192a2.71,2.71,0,0,0,2.06-.62,2.46,2.46,0,0,0,.38-1.69Z"/><path class="cls-1" d="M429.45,178.77a6.25,6.25,0,0,0-.07-1.09h1.41a15.52,15.52,0,0,0-.09,2.34v.21c3.54,0,5-.06,5.6-.13v1.33a33.35,33.35,0,0,0-3.58-.09l-2,0v3.71a5.36,5.36,0,0,1,.45,2.21,6,6,0,0,1-2.51,4.89,11.93,11.93,0,0,1-3,1.52,4.1,4.1,0,0,0-.82-1.18,9.63,9.63,0,0,0,3-1.41,4.86,4.86,0,0,0,2.1-4,2.65,2.65,0,0,1-.51.92,3.13,3.13,0,0,1-5.43-1.95,3.12,3.12,0,0,1,3.32-3.09,2.87,2.87,0,0,1,2.17.84c0-.26,0-.34,0-1,0-.08,0-.26,0-.49v-1c-3.77.08-7.55.26-8.81.47l-.06-1.37c.34,0,.47,0,.75,0,.54,0,.54,0,3.56-.11,1.8-.08,3.26-.11,4.54-.15Zm-.81,5.64a2.39,2.39,0,0,0-1.26-.3,2,2,0,0,0-2.08,2,1.81,1.81,0,0,0,1.93,1.85,2.1,2.1,0,0,0,2.19-2.21A1.36,1.36,0,0,0,428.64,184.41Z"/><path class="cls-1" d="M445.09,191.14a2.81,2.81,0,1,1-2.81-2.81A2.81,2.81,0,0,1,445.09,191.14Zm-4.55,0a1.74,1.74,0,1,0,1.74-1.74A1.75,1.75,0,0,0,440.53,191.14Z"/><path class="cls-1" d="M103,38.91c7.44.11,16.17-1.72,16.17-10.7,0-8-6.84-10.56-10.75-11.15-4.48,18.25-14,22.44-19.23,22.44-4.83,0-7.7-3.71-7.7-8.62,0-6.67,4.64-12,12.33-14.8,0-.45-.06-3.55-.06-6V8.87h-11V6.12h11V.79h3V6.12H121V8.87H96.75v6.27a30.66,30.66,0,0,1,7.89-1c12.09,0,17.61,6.46,17.61,14.2,0,11.89-11.84,13.47-18.51,13.52l-.73-3m-9.13-20c-6.27,2.67-9.57,7.15-9.57,11.84,0,2.22,1,5.82,4.88,5.82.89,0,3.5,0,7-2.66C95.26,31.08,94.19,27,93.89,18.94Zm11.74-2.18a27.91,27.91,0,0,0-8.88,1.14c.2,8.44,1.29,12.23,1.78,13.91C103,26.93,104.84,19.68,105.63,16.77Z"/><path class="cls-1" d="M138.62,1.23c-.49,15.29-.6,19-.6,23.49,0,6.75.15,14.35,10.36,14.35,13.62,0,15.29-8.88,16.77-16.91l2.82.68c-1.14,6.91-3.16,19-18.9,19-12.82,0-14.3-7.25-14.3-17.67,0-3.65.34-19.68.39-22.94l3.47,0"/><path class="cls-1" d="M174.19,41.72c5.47-9.22,8.47-28.56,8.82-31.17h-7.59V7.73h7.94c.09-1.13.64-6,.74-7l3.3.15c-.14,1.72-.19,2.22-.79,6.85h14.71v2.82H186.23c-1.39,8.93-4.55,23.28-8.95,32.31l-3.09-1.14M196,28.61c-1.83,2.71-1.83,4.39-1.83,5,0,5.22,6,5.22,12.38,5.22,3.21,0,6.52-.19,9.92-.34v3.11c-1.58,0-8.29.14-9.67.14-6.11,0-15.5,0-15.5-8.29a11.3,11.3,0,0,1,2.18-6.17Zm19.14-11.45c-1.29-.1-2.57-.19-4.69-.19a40.35,40.35,0,0,0-14.06,2.17l-.79-2.67c3.6-1.32,8.83-2.81,19.54-2.4Z"/><path class="cls-1" d="M261,6V8.78h-22.5a29.06,29.06,0,0,1-3.7,8.33,14.69,14.69,0,0,1,9-3.46c5.88,0,6.61,4.2,7,6.32,2.76-1.14,3.8-1.53,12.92-5.07l1.09,3c-7.8,2.62-10.21,3.45-13.67,4.83a50.9,50.9,0,0,1,.05,10l-3,.05a48.89,48.89,0,0,0,.14-8.82c-3.17,1.47-11.64,5.46-11.64,10.5s6.41,4.89,11.8,4.89a113.29,113.29,0,0,0,13.35-.79l.25,3a121.4,121.4,0,0,1-12.23.6c-5.28,0-16,0-16-7.45,0-6.61,8.48-10.91,14.16-13.47-.38-2.21-.84-5-4.73-5-4.84,0-9.32,4.44-9.87,5s-6.46,8.38-7.84,9.81l-2.12-2.41c3.79-3.51,7.84-8,11.88-19.73H224.5V6h11.74a38.74,38.74,0,0,0,1.14-6l3.3,0c-.44,2.18-.69,3.45-1.38,5.92H261"/><path class="cls-1" d="M280.54,42.87a63.6,63.6,0,0,0-7.6-9.38l2.71-2.17a60.13,60.13,0,0,1,8,9.22l-3.11,2.32"/><path class="cls-1" d="M312.35,35.86c8.29-.06,14-.54,19-4.69a13.34,13.34,0,0,0,5.19-10.7,11.49,11.49,0,0,0-3-8c-2-2.16-5.53-3.25-9.86-3.25-7.84,0-23.79,4-25.17,4.39l-.74-3.45c2-.25,9.57-1.64,12-2.08a87.33,87.33,0,0,1,14-1.77c12.33,0,15.89,7.89,15.89,14.11,0,4.49-1.68,11.7-11.15,15.94-4.69,2.07-10.46,2.42-15.53,2.51l-.75-3"/><path class="cls-1" d="M372,7.5v2.75H360.12c-3.7,15.79-6.86,21.9-9.38,26.06l-3-1.53C353,27,355.83,16.27,357.1,10.26h-9.23V7.5h9.78c.64-3.56.79-4.94,1-6.92l3.21.15c-.25,1.34-1,5.77-1.23,6.77H372m7.64,19.27a31.25,31.25,0,0,1,11.2,8l-2,2.48a27.21,27.21,0,0,0-9.18-7.45v2.56c0,3-.1,4.54-1,6.06-1.82,3.16-5.61,3.8-8.43,3.8-7.6,0-10.91-4.29-10.91-8.44,0-3.35,2.47-8.83,11.45-8.83a22.37,22.37,0,0,1,5.92.75l-.3-11.26h3Zm-2.9,1.88a15.86,15.86,0,0,0-6-1c-5.92,0-8.44,3-8.44,6.12,0,5.77,6.86,5.77,8,5.77,6.17,0,6.37-3.79,6.37-7.2ZM388.09,14A66.2,66.2,0,0,0,375.46,7.7l1.14-2.37a71.61,71.61,0,0,1,13,6Z"/><path class="cls-1" d="M427.15,42.81c-3.84-3.35-10.94-9.22-25.59-17.11-1.68-.94-3.85-2.12-3.85-4.25s1.64-3.31,4.74-5.37C412.2,9.61,418.77,4.48,422.91,0l2.76,1.82c-7,6.82-13,10.8-21.62,16.53-3.05,2-3.1,2.37-3.1,2.81,0,.59,0,.84,3,2.42,14.31,7.59,20.72,12.63,25.65,16.87l-2.42,2.37m-4.09-30.93a43.49,43.49,0,0,1,6.82,8.1l-2.23,2.08A44.65,44.65,0,0,0,421,13.81ZM429,7.29a45.94,45.94,0,0,1,6.86,8.1l-2.28,2.07a44.17,44.17,0,0,0-6.66-8.24Z"/></g></g></svg>