<svg xmlns="http://www.w3.org/2000/svg" width="170.08" height="20.58" viewBox="0 0 170.08 20.58"><defs><style>.cls-1{fill:#fff;}</style></defs><title>loadingText</title><g id="レイヤー_2" data-name="レイヤー 2"><g id="kv"><path class="cls-1" d="M10.32,18.68c3.57.05,7.76-.83,7.76-5.13,0-3.84-3.28-5.07-5.16-5.35C10.77,17,6.2,19,3.69,19,1.37,19,0,17.19,0,14.83c0-3.2,2.23-5.76,5.92-7.11,0-.21,0-1.71,0-2.87V4.26H.62V2.94H5.89V.38H7.32V2.94H18.95V4.26H7.32v3A14.72,14.72,0,0,1,11.1,6.8c5.8,0,8.46,3.1,8.46,6.82,0,5.71-5.68,6.47-8.89,6.49l-.35-1.42M5.94,9.09c-3,1.28-4.59,3.43-4.59,5.68,0,1.06.47,2.79,2.34,2.79A5.19,5.19,0,0,0,7,16.29,25.32,25.32,0,0,1,5.94,9.09Zm5.64-1a13.39,13.39,0,0,0-4.26.55,24,24,0,0,0,.85,6.68C10.3,12.93,11.2,9.45,11.58,8Z"/><path class="cls-1" d="M27.41.59c-.24,7.34-.29,9.14-.29,11.28,0,3.24.07,6.89,5,6.89,6.54,0,7.34-4.26,8-8.12L41.5,11C41,14.28,40,20.1,32.43,20.1c-6.15,0-6.87-3.48-6.87-8.48,0-1.75.16-9.45.19-11l1.66,0"/><path class="cls-1" d="M44.49,20c2.62-4.42,4.07-13.71,4.24-15H45.08V3.71h3.81c0-.54.31-2.89.36-3.36l1.58.07c-.07.83-.09,1.07-.38,3.29h7.06V5.07H50.27C49.6,9.35,48.08,16.24,46,20.58L44.49,20M55,13.73a4.06,4.06,0,0,0-.88,2.42c0,2.51,2.87,2.51,5.94,2.51,1.54,0,3.13-.09,4.76-.16V20c-.76,0-4,.07-4.64.07-2.93,0-7.44,0-7.44-4a5.43,5.43,0,0,1,1-3Zm9.19-5.49c-.62,0-1.23-.09-2.25-.09a19.37,19.37,0,0,0-6.75,1L54.76,7.9c1.73-.63,4.24-1.35,9.38-1.15Z"/><path class="cls-1" d="M86.14,2.89V4.22H75.34a14,14,0,0,1-1.78,4A7.05,7.05,0,0,1,77.9,6.55c2.82,0,3.17,2,3.36,3,1.33-.54,1.82-.73,6.2-2.44L88,8.59c-3.74,1.26-4.9,1.66-6.56,2.32a24.43,24.43,0,0,1,0,4.78l-1.42,0a23.47,23.47,0,0,0,.07-4.23c-1.52.71-5.59,2.62-5.59,5s3.08,2.35,5.66,2.35a54.38,54.38,0,0,0,6.41-.38l.12,1.42a58.27,58.27,0,0,1-5.87.29c-2.53,0-7.67,0-7.67-3.58,0-3.17,4.07-5.24,6.79-6.47-.18-1.06-.4-2.41-2.27-2.41-2.32,0-4.47,2.13-4.74,2.39s-3.1,4-3.77,4.71l-1-1.16C70,12,71.93,9.83,73.87,4.22H68.64V2.89h5.64A18.6,18.6,0,0,0,74.82,0L76.4,0c-.21,1-.33,1.66-.66,2.84h10.4"/><path class="cls-1" d="M95.53,20.58a30.53,30.53,0,0,0-3.65-4.5l1.3-1A28.86,28.86,0,0,1,97,19.46l-1.49,1.12"/><path class="cls-1" d="M110.8,17.21c4,0,6.73-.26,9.14-2.25a6.4,6.4,0,0,0,2.49-5.14A5.51,5.51,0,0,0,121,6a6.4,6.4,0,0,0-4.73-1.56c-3.76,0-11.42,1.94-12.08,2.11l-.36-1.66c.95-.12,4.59-.79,5.78-1A41.92,41.92,0,0,1,116.35,3C122.27,3,124,6.82,124,9.8c0,2.16-.81,5.62-5.35,7.65a19.79,19.79,0,0,1-7.46,1.21l-.36-1.44"/><path class="cls-1" d="M139.42,3.6V4.92h-5.68c-1.78,7.58-3.29,10.51-4.5,12.51l-1.42-.73c2.49-3.75,3.86-8.89,4.48-11.77h-4.43V3.6h4.69c.31-1.71.38-2.37.49-3.32l1.54.07c-.12.64-.49,2.77-.59,3.25h5.42m3.67,9.25a15,15,0,0,1,5.38,3.86l-1,1.19a13.06,13.06,0,0,0-4.41-3.58v1.23a5.39,5.39,0,0,1-.47,2.91c-.87,1.52-2.69,1.82-4,1.82-3.65,0-5.23-2.06-5.23-4.05,0-1.61,1.18-4.24,5.5-4.24a10.74,10.74,0,0,1,2.84.36L141.52,7h1.42Zm-1.39.9a7.61,7.61,0,0,0-2.86-.5c-2.84,0-4.05,1.45-4.05,2.94,0,2.77,3.29,2.77,3.86,2.77,3,0,3.06-1.82,3.06-3.45Zm5.47-7.06a31.78,31.78,0,0,0-6.06-3l.54-1.14a34.37,34.37,0,0,1,6.23,2.87Z"/><path class="cls-1" d="M165.91,20.55a62.8,62.8,0,0,0-12.29-8.21c-.81-.45-1.85-1-1.85-2s.79-1.59,2.28-2.58A55.63,55.63,0,0,0,163.88,0l1.32.87a63,63,0,0,1-10.38,7.93c-1.46,1-1.49,1.14-1.49,1.35s0,.41,1.42,1.16a60.64,60.64,0,0,1,12.31,8.1l-1.16,1.14m-2-14.85a20.87,20.87,0,0,1,3.27,3.89l-1.07,1a21.43,21.43,0,0,0-3.19-4Zm2.84-2.2a22.05,22.05,0,0,1,3.29,3.89l-1.09,1a21.2,21.2,0,0,0-3.2-4Z"/></g></g></svg>