<svg id="レイヤー_1" data-name="レイヤー 1" xmlns="http://www.w3.org/2000/svg" width="269.16" height="40" viewBox="0 0 269.16 40"><defs><style>.cls-1{fill:#e87722;}.cls-2{fill:#671e75;}</style></defs><title>siteName</title><g id="レイヤー_2" data-name="レイヤー 2"><g id="レイヤー_1-2" data-name="レイヤー 1-2"><path class="cls-1" d="M30.5,29.21a20.42,20.42,0,0,0-2.76-7.42,10.23,10.23,0,0,0-8.27-4.68c-5.37,0-11.26,4.7-15.39,10h0S1.66,30.23.66,31.87h0a4.12,4.12,0,0,0,6.58,4.94h0c1.54-1.65,9.54-13.1,15.29-13.1,2.25,0,4.24,1.56,5.51,3.37a12.92,12.92,0,0,1,1.27,2.44.62.62,0,0,0,1.19-.31Z"/><path class="cls-2" d="M22.9,27.9a20.44,20.44,0,0,0,2.76,7.43A10.22,10.22,0,0,0,33.93,40c5.37,0,11.26-4.7,15.39-10h0s2.42-3.09,3.42-4.72h0a4.13,4.13,0,0,0-6.58-4.95h0c-1.54,1.65-9.54,13.1-15.29,13.1-2.25,0-4.24-1.56-5.51-3.36a13.2,13.2,0,0,1-1.27-2.45.62.62,0,0,0-1.19.31Z"/><path d="M96.45,19.5v3.13H90.78v1.71h5.67V35c0,.73-.23,1-1,1H92.89l.23,1.84a25.79,25.79,0,0,0,2.66.11,2.25,2.25,0,0,0,2.57-2.56v-11H99.8V22.63H98.37V19.5Z"/><path d="M94.87,31.7a17,17,0,0,0-2.33-4.62H90.33a18.24,18.24,0,0,1,2.38,4.62Z"/><path d="M155.58,24.57l.68-2.12h3.85V20.78h-7.44V19.49h-2v1.29H143v1.66h3.87l.63,2.12H143v5.86a16.21,16.21,0,0,1-.21,3.29,3,3,0,0,1-.66,1.26v2.8a5.63,5.63,0,0,0,2.36-3.16A19,19,0,0,0,145,30V26.28h15.14V24.57Zm-2.06,0h-4l-.65-2.12h5.32Z"/><path d="M145,36.26v1.58h15.08V36.26H154v-2h5.17V32.71H154v-2.1h5.6V29H154V27.1h-2V29h-3.2a11.28,11.28,0,0,0,.32-1.89h-1.8A7.46,7.46,0,0,1,145.9,31v2.52a6.46,6.46,0,0,0,2.34-2.85H152v2.1h-4.57v1.56H152v2Z"/><path d="M67.33,35V33h3.51V31.29H67.33v-2h3.51V20H62v9.29h3.55v2H61.92V33h3.59v2.13s-2.17.16-3.6.17v1.78a55.92,55.92,0,0,0,9.34-.88V34.48C70,34.69,67.33,35,67.33,35Zm0-13.28h1.81V24H67.33Zm0,3.86h1.81v2.13H67.33Zm-1.82,2.13H63.67V25.54h1.84Zm0-3.73H63.67v-2.3h1.84Z"/><path d="M77.11,26.31h3.16s-.08,3.37-.93,4.71H77.47a9.83,9.83,0,0,0,.88-3H76.6v7.5a2,2,0,0,1-2.26,2.29,11,11,0,0,1-1.64-.08L72.52,36h1.56c.59,0,.71-.28.71-.71V28H71.87V26.31H75a25.69,25.69,0,0,0-2.18-2.89H75s.47.58.65.82a5.67,5.67,0,0,0,1.72-2.56h-5.2V20h7.34a7.39,7.39,0,0,1-2.82,5.73Z"/><path d="M135.87,19.51h-1.8v3.38H132.3V24.6H134v.1c0,4.52-.59,7.87-1.75,9.79v3c2.41-2.11,3.49-6,3.56-12.74v-.1H138V34.4c0,1.81-1.53,1.67-1.53,1.67h-1.33l.3,1.79H137c2.32,0,2.69-1.81,2.75-3.38s0-11.56,0-11.56h-3.88Z"/><path d="M86.83,19.5h-1.9v3.13H82.06v1.71h2.58c-.18,1.21-1.28,4.58-2.54,5.71v2.59a12.49,12.49,0,0,0,2.6-4l.19-.43V37.8h1.92V28.24l.19.42c.37.8,1.6,3.36,2.63,4V30c-1.18-1.11-2.36-4.38-2.51-5.71h2.51V22.63h-2.8S86.84,20,86.83,19.5Z"/><path d="M101.7,22h8.42c-1,1.9-4.58,6.14-8.33,7.81v2.3a20.89,20.89,0,0,0,7.48-5.65V38.18h2.18V23.8A16.92,16.92,0,0,0,112.6,22v-.06h6.62V20.23H101.7Z"/><path d="M113.72,24.56h-2.07c.48,2.07,3.09,5.82,7.6,7.52V29.92A10.89,10.89,0,0,1,113.72,24.56Z"/><path d="M131.19,35.32a27.35,27.35,0,0,1-3.8.54V34.58h3.8V33.17h-3.8V32.1h3.8V25h-3.8V24h3.79V22.57h-3.79V21.32l3.22-.26-.36-1.55-8.15.72.29,1.54,3.32-.29v1.1H122V24h3.77v1H122v7.1h3.78v1.08H122v1.41h3.78V36a37.19,37.19,0,0,1-3.79.11v1.42a55.19,55.19,0,0,0,9.26-.94Zm-3.8-9h2.21v1.54h-2.21Zm0,2.89h2.21v1.52h-2.21Zm-1.67,1.52h-2.14V29.24h2.14Zm0-2.87h-2.14V26.35h2.14Z"/><rect x="146" y="5" width="17" height="1"/><path d="M66.43,9.7c1.69,0,3.67-.39,3.67-2.43a2.59,2.59,0,0,0-2.44-2.53c-1,4.14-3.17,5.09-4.36,5.09a1.76,1.76,0,0,1-1.74-2c0-1.5,1-2.71,2.79-3.35V2.9h-2.5V2.27h2.49V1.06H65V2.27h5.5V2.9H65V4.31a7,7,0,0,1,1.79-.23c2.74,0,4,1.47,4,3.22,0,2.69-2.68,3-4.19,3.06ZM64.36,5.18a3.08,3.08,0,0,0-2.17,2.68,1.17,1.17,0,0,0,1,1.31h.1a2.45,2.45,0,0,0,1.58-.6A12.13,12.13,0,0,1,64.36,5.18ZM67,4.69a6.19,6.19,0,0,0-2,.25,11.26,11.26,0,0,0,.4,3.15A8.42,8.42,0,0,0,67,4.69Z"/><path d="M74.5,1.16c-.11,3.46-.14,4.31-.14,5.32,0,1.53,0,3.25,2.35,3.25,3.08,0,3.46-2,3.8-3.84l.64.16c-.26,1.56-.72,4.31-4.28,4.31-2.91,0-3.24-1.65-3.24-4,0-.83.08-4.46.09-5.2Z"/><path d="M82.56,10.34c1.24-2.09,1.92-6.47,2-7.07H82.84V2.64h1.8c0-.26.14-1.37.17-1.59h.75a7.09,7.09,0,0,1-.18,1.55h3.33v.63H85.29a29.69,29.69,0,0,1-2,7.33Zm4.94-3a1.92,1.92,0,0,0-.42,1.14c0,1.18,1.35,1.18,2.81,1.18a21.53,21.53,0,0,0,2.25-.08v.71H89.95c-1.39,0-3.51,0-3.51-1.88A2.56,2.56,0,0,1,86.93,7Zm4.34-2.59H90.78a9.16,9.16,0,0,0-3.19.49l-.18-.6a10.63,10.63,0,0,1,4.43-.55Z"/><path d="M102.22,2.24v.63h-5.1a6.35,6.35,0,0,1-.84,1.89,3.37,3.37,0,0,1,2-.78,1.47,1.47,0,0,1,1.59,1.34s0,.06,0,.09c.63-.26.86-.34,2.93-1.15l.25.68c-1.77.59-2.31.78-3.1,1.09a11.83,11.83,0,0,1,0,2.26h-.67a10.82,10.82,0,0,0,0-2c-.71.34-2.64,1.24-2.64,2.38s1.46,1.1,2.67,1.1a25,25,0,0,0,3-.18l.06.67a25.9,25.9,0,0,1-2.77.14c-1.2,0-3.62,0-3.62-1.69,0-1.49,1.92-2.47,3.21-3-.09-.5-.19-1.14-1.07-1.14A3.66,3.66,0,0,0,96,5.67c-.14.14-1.47,1.9-1.78,2.22l-.48-.55a9.63,9.63,0,0,0,2.69-4.47H94V2.24h2.66A8.39,8.39,0,0,0,96.88.89h.75c-.1.49-.16.78-.31,1.34Z"/><path d="M106.66,10.6a14,14,0,0,0-1.72-2.12l.61-.49a13.58,13.58,0,0,1,1.81,2.09Z"/><path d="M113.87,9c1.88,0,3.18-.12,4.32-1.06a3,3,0,0,0,1.17-2.42,2.61,2.61,0,0,0-.67-1.81A3,3,0,0,0,116.45,3a32.89,32.89,0,0,0-5.7,1l-.17-.78c.45-.06,2.17-.37,2.73-.47a19.48,19.48,0,0,1,3.18-.4c2.79,0,3.6,1.79,3.6,3.2a3.82,3.82,0,0,1-2.52,3.61,9.24,9.24,0,0,1-3.52.57Z"/><path d="M127.37,2.58v.63h-2.68a18.7,18.7,0,0,1-2.12,5.9l-.67-.35A17.31,17.31,0,0,0,124,3.21h-2.09V2.58h2.21c.14-.8.18-1.12.23-1.57h.73c-.06.3-.23,1.31-.28,1.54ZM129.1,7a7,7,0,0,1,2.54,1.82l-.46.56a6.17,6.17,0,0,0-2.08-1.69v.58a2.53,2.53,0,0,1-.22,1.37,2.1,2.1,0,0,1-1.91.86c-1.72,0-2.47-1-2.47-1.91,0-.75.56-2,2.59-2a5,5,0,0,1,1.34.17l-.07-2.55H129Zm-.66.42a3.57,3.57,0,0,0-1.35-.23c-1.34,0-1.91.69-1.91,1.39,0,1.31,1.55,1.31,1.82,1.31,1.4,0,1.44-.86,1.44-1.63ZM131,4a15.2,15.2,0,0,0-2.86-1.42L128.4,2a16.23,16.23,0,0,1,2.94,1.35Z"/><path d="M139.88,10.59a29.7,29.7,0,0,0-5.8-3.88c-.38-.21-.87-.48-.87-1s.37-.75,1.07-1.22A26.27,26.27,0,0,0,138.92.88l.63.41A29.56,29.56,0,0,1,134.65,5c-.69.46-.7.54-.7.64s0,.19.67.55A28.69,28.69,0,0,1,140.43,10Zm-.93-7a9.71,9.71,0,0,1,1.54,1.83l-.5.47A10.06,10.06,0,0,0,138.48,4Zm1.34-1a10.45,10.45,0,0,1,1.55,1.83l-.51.47A10.08,10.08,0,0,0,139.82,3Z"/><path d="M173.12,9.52c-1.14.21-4.15.56-5.46.63l-.09-.63a18.9,18.9,0,0,0,2.54-.18V7.61h-2.36V7h2.36V5.76h-2.18V1.13h4.92V5.76h-2.18V7H173v.57h-2.35V9.28c1.46-.15,2-.25,2.43-.31Zm-3-7.88H168.5V3.15h1.61Zm0,2H168.5V5.23h1.61Zm2.16-2h-1.6V3.15h1.6Zm0,2h-1.6V5.23h1.6Zm3.79,1.06h1.78v.46a7,7,0,0,1-.92,2.17L176.4,7a5.74,5.74,0,0,0,.83-1.73h-1.44v4.85c0,.59-.25.77-.83.77H173.4l-.14-.61h1.49c.31,0,.42,0,.42-.33V5.31h-1.9V4.72h2.61A11.22,11.22,0,0,0,173.95,3l.4-.4c.64.46.9.67,1.11.85a7.83,7.83,0,0,0,1.45-1.78h-3.39V1.13h4.12v.51a9.44,9.44,0,0,1-1.79,2.18c.21.19.34.3.56.52Z"/><path d="M183,7.34a17.44,17.44,0,0,1-1.28-2.24v5.82h-.61V5.09a9.55,9.55,0,0,1-2,3.28l-.36-.6a10,10,0,0,0,2.32-4.2H179V3h2.18V.69h.61V3h2v.59h-2V4a21.56,21.56,0,0,0,1.8,3ZM187.82.69V3h1.35v.59h-1.35V9.84c0,.65,0,1.09-.95,1.09h-1.65l-.12-.66h1.72c.38,0,.38-.12.38-.36V3.56h-3.12V3h3.12V.69ZM185.66,8a15.82,15.82,0,0,0-1.44-2.81l.51-.3a16.54,16.54,0,0,1,1.52,2.77Z"/><path d="M190.08,7.22a12,12,0,0,0,5.48-5.51h-5.44V1.13h10.26v.58h-4.12a10.43,10.43,0,0,1-.78,1.45h.09v7.76h-.66V4a12.69,12.69,0,0,1-4.44,3.79Zm9.95.57a17.79,17.79,0,0,1-3.93-3.94l.47-.36a17.58,17.58,0,0,0,3.87,3.74Z"/><path d="M205.06,2.49h2.59V3h-2.59v.75h2.29V7.16h-2.29V8h2.43v.5h-2.43V9.57c.95-.13,1.44-.19,2.37-.38l.06.5c-1,.25-4,.67-5.61.84l-.11-.59c1-.07,1.29-.1,2.72-.29V8.49h-2.41V8h2.41V7.16h-2.28V3.74h2.28V3h-2.68V2.5h2.68V1.62c-1.4.14-2,.16-2.36.17l-.19-.52a20.45,20.45,0,0,0,4.85-.62l.37.49a15.28,15.28,0,0,1-2.1.4Zm-.57,1.73h-1.71v1h1.71Zm0,1.46h-1.71v1h1.71Zm2.28-1.46h-1.71v1h1.71Zm0,1.46h-1.71v1h1.71Zm2.91-1.8a11.39,11.39,0,0,1-1.93,7l-.58-.41a6.85,6.85,0,0,0,1.34-2.56,15.48,15.48,0,0,0,.57-4.12V3.6h-1.14V3h1.14V.69h.6V3h2.14a42.15,42.15,0,0,1-.43,7.14,1,1,0,0,1-1.14.73H209l-.17-.62,1.32.06a.57.57,0,0,0,.59-.24c.41-.8.45-5.38.47-6.51h-1.55Z"/><path d="M218.25,1.61V.7h.64v.91H223v.56h-1.71a10.49,10.49,0,0,1-.48,1.51h2.85v.56h-8.79v2.6a7.87,7.87,0,0,1-1.05,4.06l-.54-.35a7.18,7.18,0,0,0,1-3.66V3.68h2a11.35,11.35,0,0,0-.47-1.51H214V1.61Zm1,4.15V4.55h.62V5.76h3.34V6.3h-3.34V7.83h2.84v.54h-2.84V10h3.63v.56h-8.4V10h4.15V8.36H216.2V7.83h3.05V6.3h-2.47a5.91,5.91,0,0,1-.87,1.18l-.48-.34a7,7,0,0,0,1.5-2.68l.61.15a12.43,12.43,0,0,1-.48,1.15Zm1-2.08a8.68,8.68,0,0,0,.44-1.51h-4.28a13.86,13.86,0,0,1,.46,1.51Z"/><path d="M226,9.91c3.42-.76,6.06-2.74,6.86-7.31h-4.2a9.78,9.78,0,0,1-2.9,3.08l-.43-.53A9.16,9.16,0,0,0,228.19,2h4.66l.67.8c-1.07,6.21-5.59,7.37-7.23,7.78ZM233.3.43a11.61,11.61,0,0,1,1.29,2l-.57.39a10.61,10.61,0,0,0-1.25-2ZM234.77,0a11,11,0,0,1,1.3,2l-.57.4a10.68,10.68,0,0,0-1.24-2Z"/><path d="M238.45,4.33c0,2.76-.56,4.48-2.22,6.13l-.48-.48a6.94,6.94,0,0,0,2-5.62V1.5h.66Zm2.87,5.14c2.83-.53,3.51-2.54,3.87-4.59l.63.26c-.46,2.24-1.32,4.74-5.18,5.15V1.16h.68Z"/><path d="M257.52,5.43v.73h-9.63V5.43Z"/><path d="M265.64,2.11l.72.85c-.19,1.47-.86,6.59-6.37,7.41l-.35-.65c1.21-.17,5.44-.75,6-7h-7V2.11Zm3.52-.55A1.56,1.56,0,1,1,267.6,0h0A1.57,1.57,0,0,1,269.16,1.56Zm-2.56,0a1,1,0,1,0,1-1A1,1,0,0,0,266.6,1.56Z"/></g></g></svg>